<?xml version="1.0" encoding="UTF-8"?>
<svg version="1.1" xmlns="http://www.w3.org/2000/svg" width="1280" height="447">
<path d="M0 0 C0.99823792 -0.00622879 1.99647583 -0.01245758 3.02496338 -0.01887512 C4.10308289 -0.00966537 5.18120239 -0.00045563 6.29199219 0.0090332 C7.40314392 0.0085347 8.51429565 0.00803619 9.65911865 0.00752258 C12.01283554 0.00986495 14.36655484 0.01960295 16.72021484 0.03613281 C20.31077701 0.05963062 23.9005919 0.05670634 27.49121094 0.05004883 C29.77897576 0.05562889 32.06673746 0.06274082 34.35449219 0.0715332 C35.95952606 0.07016609 35.95952606 0.07016609 37.59698486 0.06877136 C43.16236977 0.12125145 47.83094962 0.52481858 53.08886719 2.37231445 C53.81976562 2.58114258 54.55066406 2.7899707 55.30371094 3.00512695 C56.89876302 3.46085612 58.4938151 3.91658529 60.08886719 4.37231445 C60.08886719 5.03231445 60.08886719 5.69231445 60.08886719 6.37231445 C63.05886719 6.86731445 63.05886719 6.86731445 66.08886719 7.37231445 C66.08886719 8.03231445 66.08886719 8.69231445 66.08886719 9.37231445 C67.40886719 10.03231445 68.72886719 10.69231445 70.08886719 11.37231445 C70.08886719 12.03231445 70.08886719 12.69231445 70.08886719 13.37231445 C71.07886719 13.70231445 72.06886719 14.03231445 73.08886719 14.37231445 C73.08886719 15.36231445 73.08886719 16.35231445 73.08886719 17.37231445 C73.74886719 17.37231445 74.40886719 17.37231445 75.08886719 17.37231445 C79.01655876 27.33916733 79.71851177 36.28288699 79.61035156 46.87426758 C79.58889228 49.36939633 79.61026257 51.86164719 79.63574219 54.35668945 C79.65021347 64.09007267 78.69391308 72.22420256 75.08886719 81.37231445 C74.42886719 81.37231445 73.76886719 81.37231445 73.08886719 81.37231445 C73.06824219 82.07356445 73.04761719 82.77481445 73.02636719 83.49731445 C71.6390751 87.75167685 68.57262546 89.72538584 65.08886719 92.37231445 C65.88004622 94.37214979 65.88004622 94.37214979 67.08886719 96.37231445 C68.57386719 96.86731445 68.57386719 96.86731445 70.08886719 97.37231445 C70.08886719 98.03231445 70.08886719 98.69231445 70.08886719 99.37231445 C71.57386719 99.86731445 71.57386719 99.86731445 73.08886719 100.37231445 C73.08886719 101.36231445 73.08886719 102.35231445 73.08886719 103.37231445 C73.74886719 103.37231445 74.40886719 103.37231445 75.08886719 103.37231445 C81.89935602 118.47383316 80.2248391 136.0614315 80.15136719 152.30981445 C80.14633795 154.26489142 80.14177758 156.21996965 80.13769531 158.17504883 C80.12681222 162.90750264 80.10962762 167.63989409 80.08886719 172.37231445 C80.74886719 172.37231445 81.40886719 172.37231445 82.08886719 172.37231445 C82.08886719 175.01231445 82.08886719 177.65231445 82.08886719 180.37231445 C77.5167348 182.65838065 71.17119966 181.60248302 66.15136719 181.62231445 C64.1994043 181.65325195 64.1994043 181.65325195 62.20800781 181.68481445 C60.96341797 181.6899707 59.71882812 181.69512695 58.43652344 181.70043945 C57.2919165 181.70978516 56.14730957 181.71913086 54.96801758 181.72875977 C52.08886719 181.37231445 52.08886719 181.37231445 50.25463867 180.28930664 C46.73836987 174.50716159 47.96012401 166.03400659 47.99121094 159.5324707 C47.99262589 158.41037704 47.99404083 157.28828339 47.99549866 156.13218689 C48.00107318 152.56636837 48.01362102 149.00061383 48.02636719 145.43481445 C48.03138548 143.00968515 48.03594781 140.58455487 48.04003906 138.15942383 C48.05103427 132.23036573 48.06774698 126.30134467 48.08886719 120.37231445 C47.42886719 120.37231445 46.76886719 120.37231445 46.08886719 120.37231445 C45.59386719 116.90731445 45.59386719 116.90731445 45.08886719 113.37231445 C44.09886719 113.37231445 43.10886719 113.37231445 42.08886719 113.37231445 C42.08886719 112.71231445 42.08886719 112.05231445 42.08886719 111.37231445 C37.73553983 110.53208258 33.644442 110.26460451 29.21386719 110.30981445 C28.06144531 110.31883789 26.90902344 110.32786133 25.72167969 110.3371582 C24.85285156 110.34875977 23.98402344 110.36036133 23.08886719 110.37231445 C23.57806641 111.18635742 23.57806641 111.18635742 24.07714844 112.0168457 C25.29668263 114.85614731 25.32159413 116.98027054 25.27636719 120.05981445 C25.26992188 121.03305664 25.26347656 122.00629883 25.25683594 123.0090332 C25.08886719 125.37231445 25.08886719 125.37231445 24.08886719 126.37231445 C23.98783464 129.17225043 23.94916631 131.94700089 23.95605469 134.74731445 C23.95509796 135.58697754 23.95414124 136.42664063 23.95315552 137.29174805 C23.95247371 139.0705574 23.95432802 140.84936923 23.95849609 142.62817383 C23.96384436 145.36065221 23.95855113 148.09296622 23.95214844 150.82543945 C23.95280922 152.54939815 23.95409038 154.27335675 23.95605469 155.99731445 C23.95403046 156.82021973 23.95200623 157.643125 23.94992065 158.4909668 C23.60311259 162.23611312 23.60311259 162.23611312 25.08886719 165.37231445 C25.16145665 167.55870898 25.17260501 169.74731834 25.15136719 171.93481445 C25.14234375 173.13235352 25.13332031 174.32989258 25.12402344 175.5637207 C25.11242187 176.49055664 25.10082031 177.41739258 25.08886719 178.37231445 C24.42886719 178.37231445 23.76886719 178.37231445 23.08886719 178.37231445 C23.08886719 179.36231445 23.08886719 180.35231445 23.08886719 181.37231445 C18.83472096 181.39697067 14.58061221 181.41515344 10.32641602 181.42724609 C8.87816646 181.43228546 7.42992202 181.43911698 5.98168945 181.44775391 C3.90412131 181.45983692 1.82662022 181.46554657 -0.25097656 181.4699707 C-1.50257568 181.47520752 -2.7541748 181.48044434 -4.04370117 181.48583984 C-6.91113281 181.37231445 -6.91113281 181.37231445 -7.91113281 180.37231445 C-8.01482268 178.10097415 -8.04637378 175.82634273 -8.05157471 173.55264282 C-8.05454583 172.83111633 -8.05751695 172.10958983 -8.06057811 171.3661989 C-8.06930195 168.93023763 -8.07077644 166.49432529 -8.07226562 164.05834961 C-8.07689119 162.31924839 -8.08191549 160.58014819 -8.08731079 158.84104919 C-8.10046188 154.10345516 -8.10688499 149.36587531 -8.11132145 144.62826586 C-8.11424777 141.67152113 -8.11835172 138.71478033 -8.12282562 135.75803757 C-8.13650759 126.51613718 -8.14617086 117.2742457 -8.15002751 108.03233588 C-8.15451037 97.34706437 -8.17206591 86.66192066 -8.20102811 75.97668803 C-8.22261171 67.72870355 -8.23273001 59.4807551 -8.23406863 51.23274267 C-8.23511904 46.30131781 -8.2410766 41.37001295 -8.25888824 36.43861771 C-8.27531168 31.80114757 -8.27755247 27.16388838 -8.26874924 22.52639961 C-8.26797578 20.82156753 -8.27236195 19.11672438 -8.28220749 17.41192055 C-8.29483526 15.08967688 -8.28910097 12.76819073 -8.27862549 10.44595337 C-8.28009205 9.1447587 -8.28155861 7.84356403 -8.28306961 6.50293922 C-7.91113281 3.37231445 -7.91113281 3.37231445 -6.52877808 1.45360088 C-4.28431717 -0.0466694 -2.68906527 -0.00192724 0 0 Z M23.08886719 30.37231445 C23.08886719 31.03231445 23.08886719 31.69231445 23.08886719 32.37231445 C23.74886719 32.37231445 24.40886719 32.37231445 25.08886719 32.37231445 C25.08886719 39.63231445 25.08886719 46.89231445 25.08886719 54.37231445 C24.42886719 54.37231445 23.76886719 54.37231445 23.08886719 54.37231445 C23.08886719 61.63231445 23.08886719 68.89231445 23.08886719 76.37231445 C23.74886719 76.37231445 24.40886719 76.37231445 25.08886719 76.37231445 C25.08886719 77.69231445 25.08886719 79.01231445 25.08886719 80.37231445 C27.19296358 80.39932853 29.29715896 80.41871669 31.40136719 80.43481445 C32.573125 80.44641602 33.74488281 80.45801758 34.95214844 80.4699707 C38.11945914 80.52131343 38.11945914 80.52131343 41.08886719 79.37231445 C41.08886719 78.71231445 41.08886719 78.05231445 41.08886719 77.37231445 C43.06886719 76.87731445 43.06886719 76.87731445 45.08886719 76.37231445 C45.41886719 74.06231445 45.74886719 71.75231445 46.08886719 69.37231445 C46.74886719 69.37231445 47.40886719 69.37231445 48.08886719 69.37231445 C48.08886719 58.81231445 48.08886719 48.25231445 48.08886719 37.37231445 C47.42886719 37.37231445 46.76886719 37.37231445 46.08886719 37.37231445 C45.98574219 36.77418945 45.88261719 36.17606445 45.77636719 35.55981445 C44.97472878 33.0091468 44.18854154 32.00539451 42.08886719 30.37231445 C38.56833906 29.17712361 35.1566239 29.23897866 31.46386719 29.24731445 C30.31660156 29.24473633 29.16933594 29.2421582 27.98730469 29.23950195 C25.14910674 29.17310998 25.14910674 29.17310998 23.08886719 30.37231445 Z " fill="#FEFEFE" transform="translate(665.9111328125,92.627685546875)"/>
<path d="M0 0 C1.12067871 0.01047363 2.24135742 0.02094727 3.39599609 0.03173828 C5.21357422 0.04140625 5.21357422 0.04140625 7.06787109 0.05126953 C8.33888672 0.06802734 9.60990234 0.08478516 10.91943359 0.10205078 C12.19818359 0.11107422 13.47693359 0.12009766 14.79443359 0.12939453 C17.96128526 0.15302775 21.12776783 0.18597449 24.29443359 0.22705078 C24.62443359 1.21705078 24.95443359 2.20705078 25.29443359 3.22705078 C25.95443359 3.22705078 26.61443359 3.22705078 27.29443359 3.22705078 C27.62443359 51.40705078 27.95443359 99.58705078 28.29443359 149.22705078 C29.28443359 149.55705078 30.27443359 149.88705078 31.29443359 150.22705078 C31.62443359 150.88705078 31.95443359 151.54705078 32.29443359 152.22705078 C34.7407432 152.77445153 34.7407432 152.77445153 37.60693359 152.97705078 C39.05519531 153.12400391 39.05519531 153.12400391 40.53271484 153.27392578 C43.43984097 153.22458276 44.89622401 152.82951576 47.29443359 151.22705078 C47.62443359 150.56705078 47.95443359 149.90705078 48.29443359 149.22705078 C48.95443359 149.22705078 49.61443359 149.22705078 50.29443359 149.22705078 C50.62443359 101.04705078 50.95443359 52.86705078 51.29443359 3.22705078 C51.95443359 3.22705078 52.61443359 3.22705078 53.29443359 3.22705078 C53.62443359 2.23705078 53.95443359 1.24705078 54.29443359 0.22705078 C58.37722861 0.05283962 62.4590704 -0.05377509 66.54443359 -0.14794922 C67.70330078 -0.19822266 68.86216797 -0.24849609 70.05615234 -0.30029297 C71.72871094 -0.32929687 71.72871094 -0.32929687 73.43505859 -0.35888672 C74.46147461 -0.39030762 75.48789062 -0.42172852 76.54541016 -0.45410156 C79.72381071 0.33344174 80.76440642 1.40597841 82.47369385 4.15542793 C84.28737876 8.73333599 83.77361661 13.77009922 83.68847656 18.61621094 C83.68251968 19.86267899 83.67656281 21.10914703 83.67042542 22.39338684 C83.64983797 25.80590909 83.61120392 29.21729869 83.56394339 32.62949419 C83.5180018 36.22215312 83.49371802 39.8149653 83.46658325 43.4078064 C83.41772047 49.45549816 83.35333866 55.50286581 83.27880859 61.55029297 C83.19337915 68.49021207 83.1279858 75.43007572 83.07468498 82.37031138 C83.01739799 89.80994305 82.9459462 97.24939076 82.87008142 104.68885374 C82.84935943 106.80428228 82.83108075 108.9197198 82.81335068 111.03517532 C82.67827449 126.53090811 82.23977385 141.83973177 80.29443359 157.22705078 C79.63443359 157.22705078 78.97443359 157.22705078 78.29443359 157.22705078 C77.96443359 159.53705078 77.63443359 161.84705078 77.29443359 164.22705078 C76.63443359 164.22705078 75.97443359 164.22705078 75.29443359 164.22705078 C75.21193359 164.76330078 75.12943359 165.29955078 75.04443359 165.85205078 C74.01088571 169.12495241 72.38489749 171.52174457 70.29443359 174.22705078 C69.30443359 174.22705078 68.31443359 174.22705078 67.29443359 174.22705078 C67.29443359 174.88705078 67.29443359 175.54705078 67.29443359 176.22705078 C62.32617044 180.5415951 57.74212766 180.97220121 51.29443359 181.22705078 C51.29443359 181.88705078 51.29443359 182.54705078 51.29443359 183.22705078 C43.37443359 183.22705078 35.45443359 183.22705078 27.29443359 183.22705078 C27.29443359 182.56705078 27.29443359 181.90705078 27.29443359 181.22705078 C26.65376953 181.20126953 26.01310547 181.17548828 25.35302734 181.14892578 C19.2354852 180.74777548 15.38193139 179.6555819 10.29443359 176.22705078 C10.29443359 175.56705078 10.29443359 174.90705078 10.29443359 174.22705078 C9.30443359 173.89705078 8.31443359 173.56705078 7.29443359 173.22705078 C7.29443359 172.56705078 7.29443359 171.90705078 7.29443359 171.22705078 C6.30443359 170.89705078 5.31443359 170.56705078 4.29443359 170.22705078 C3.12646484 168.70361328 3.12646484 168.70361328 2.10693359 166.85205078 C1.59066406 165.94326172 1.59066406 165.94326172 1.06396484 165.01611328 C0.29443359 163.22705078 0.29443359 163.22705078 0.29443359 160.22705078 C-0.36556641 160.22705078 -1.02556641 160.22705078 -1.70556641 160.22705078 C-1.90472656 159.16164062 -1.90472656 159.16164062 -2.10791016 158.07470703 C-2.28451172 157.15560547 -2.46111328 156.23650391 -2.64306641 155.28955078 C-2.81708984 154.37302734 -2.99111328 153.45650391 -3.17041016 152.51220703 C-3.48271629 150.27415234 -3.48271629 150.27415234 -4.70556641 149.22705078 C-4.80650662 147.33338704 -4.83633798 145.43591587 -4.83927917 143.53956604 C-4.84354416 142.30420105 -4.84780914 141.06883606 -4.85220337 139.79603577 C-4.85185381 138.41439816 -4.85139225 137.03276058 -4.85083008 135.65112305 C-4.85381997 134.20596225 -4.8572221 132.76080225 -4.86100769 131.31564331 C-4.86986917 127.3797391 -4.8721867 123.44385661 -4.87282348 119.50794339 C-4.8737708 116.22744609 -4.87744705 112.94695389 -4.88099557 109.66645855 C-4.88914829 101.92973603 -4.89157906 94.19302515 -4.89086914 86.45629883 C-4.89026812 78.4634377 -4.90082283 70.47064401 -4.9166128 62.47779995 C-4.92966854 55.62599734 -4.93505387 48.77421681 -4.93441373 41.92240185 C-4.93415816 37.82549259 -4.93704155 33.72864322 -4.94759178 29.63174629 C-4.9572398 25.779788 -4.95737478 21.92794727 -4.95007515 18.07598495 C-4.94902518 16.65938458 -4.95141646 15.24277702 -4.95743561 13.82618904 C-4.9651002 11.89798036 -4.9593366 9.96973201 -4.95280457 8.04151917 C-4.95334933 6.96063302 -4.9538941 5.87974688 -4.95445538 4.76610661 C-4.59557019 1.10491771 -3.64110188 0.3055608 0 0 Z " fill="#FEFEFE" transform="translate(560.70556640625,92.77294921875)"/>
<path d="M0 0 C3.95096978 -0.04939662 7.9018203 -0.08571755 11.85302734 -0.10986328 C13.8591136 -0.12488107 15.86511324 -0.15028981 17.87109375 -0.17578125 C19.12792969 -0.18222656 20.38476562 -0.18867187 21.6796875 -0.1953125 C22.84226074 -0.20578613 24.00483398 -0.21625977 25.20263672 -0.22705078 C28 0 28 0 30 2 C30.2784729 4.78408813 30.2784729 4.78408813 30.31884766 8.37744141 C30.32889328 9.03122269 30.3389389 9.68500397 30.34928894 10.3585968 C30.38021789 12.52290962 30.39718254 14.68709823 30.4140625 16.8515625 C30.4327664 18.35087154 30.45233922 19.85016998 30.4727478 21.34945679 C30.52415753 25.29823562 30.56373568 29.24704863 30.60089111 33.19598389 C30.64087556 37.22449251 30.69199317 41.25285794 30.7421875 45.28125 C30.83905136 53.18740233 30.9234224 61.09362529 31 69 C31.63783072 67.73623769 32.27427966 66.47177793 32.91015625 65.20703125 C33.264729 64.50296143 33.61930176 63.7988916 33.98461914 63.07348633 C35.12292321 60.7489813 36.14640734 58.38387084 37.14453125 55.99609375 C38.66413504 52.45035158 40.2994322 48.95638347 41.9140625 45.453125 C43.0719488 42.94224119 43.0719488 42.94224119 44 40 C44.66 40 45.32 40 46 40 C46.33 37.69 46.66 35.38 47 33 C47.66 33 48.32 33 49 33 C49.0825 32.175 49.165 31.35 49.25 30.5 C50.16447269 26.23246079 51.92223178 22.80763106 54 19 C54.66 19 55.32 19 56 19 C56.33 17.02 56.66 15.04 57 13 C57.66 13 58.32 13 59 13 C59.0825 11.948125 59.165 10.89625 59.25 9.8125 C60.0595509 5.69728295 61.11709086 3.97027002 64 1 C66.76617563 -0.38308781 69.01018 -0.11210196 72.1015625 -0.09765625 C73.31328125 -0.09443359 74.525 -0.09121094 75.7734375 -0.08789062 C77.04445313 -0.07951172 78.31546875 -0.07113281 79.625 -0.0625 C80.90375 -0.05798828 82.1825 -0.05347656 83.5 -0.04882812 C86.66671292 -0.03701203 89.83333356 -0.02053815 93 0 C94.24646366 5.7874439 93.04323693 8.71101508 90.125 13.6875 C89.28645471 15.18662175 88.45196436 16.68801732 87.62109375 18.19140625 C87.18780762 18.97273926 86.75452148 19.75407227 86.30810547 20.55908203 C83.69534136 25.4344862 81.41223877 30.46975538 79.09619141 35.4909668 C76.93556743 40.14126667 74.57330468 44.56515576 72 49 C70.96514123 51.31808364 69.9644586 53.65175298 69 56 C68.43967224 57.31342883 67.87722862 58.62595736 67.3125 59.9375 C66.879375 60.948125 66.44625 61.95875 66 63 C65.34 63 64.68 63 64 63 C63.814375 64.7015625 63.814375 64.7015625 63.625 66.4375 C63.41875 67.613125 63.2125 68.78875 63 70 C62.01 70.495 62.01 70.495 61 71 C57.79544134 75.93009025 57.22491036 80.28619818 58 86 C58.82405107 88.45794542 59.87383326 90.65381929 61 93 C61 93.99 61 94.98 61 96 C61.66 96 62.32 96 63 96 C63.495 99.465 63.495 99.465 64 103 C64.66 103 65.32 103 66 103 C66.40992188 104.24136719 66.81984375 105.48273438 67.2421875 106.76171875 C67.78637789 108.4036725 68.33065319 110.0455981 68.875 111.6875 C69.14441406 112.50412109 69.41382813 113.32074219 69.69140625 114.16210938 C70.78268423 117.44925157 71.8727708 120.69190576 73.1953125 123.89453125 C74 126 74 126 74 129 C74.66 129 75.32 129 76 129 C76.84124316 131.24732102 77.67314832 133.49738785 78.5 135.75 C78.85771484 136.70132813 78.85771484 136.70132813 79.22265625 137.671875 C80.44801758 141.03286607 81 143.36871587 81 147 C81.66 147 82.32 147 83 147 C83.28875 148.093125 83.5775 149.18625 83.875 150.3125 C84.81893204 154.04013845 84.81893204 154.04013845 87 157 C87.66666667 159 88.33333333 161 89 163 C90.56827313 166.71137147 92.19792356 170.39584712 94 174 C94.125 177.0625 94.125 177.0625 94 180 C91.37434901 182.62565099 84.31338297 181.31864891 80.75415039 181.35009766 C79.38158182 181.36663658 78.00909867 181.39390057 76.63696289 181.43212891 C74.65824096 181.48698079 72.67862088 181.50564956 70.69921875 181.5234375 C69.51158936 181.54325684 68.32395996 181.56307617 67.1003418 181.58349609 C64 181 64 181 61.61938477 178.62084961 C59.95034902 175.91964371 59.43706453 174.32083081 59.25 171.1875 C59.19328125 170.39730469 59.1365625 169.60710937 59.078125 168.79296875 C59.05234375 168.20128906 59.0265625 167.60960937 59 167 C58.34 167 57.68 167 57 167 C56.505 163.535 56.505 163.535 56 160 C55.34 160 54.68 160 54 160 C53.59007812 158.83082031 53.18015625 157.66164062 52.7578125 156.45703125 C52.21359785 154.90883441 51.6693239 153.36065843 51.125 151.8125 C50.85558594 151.04357422 50.58617187 150.27464844 50.30859375 149.48242188 C49.20625347 146.3501623 48.10860178 143.25446888 46.8046875 140.19921875 C46 138 46 138 46 134 C45.34 134 44.68 134 44 134 C41.69557475 128.07433507 39.76463072 122.10737442 38 116 C37.01 116 36.02 116 35 116 C31.22806943 123.67401129 30.41141041 130.27158303 30.42578125 138.75390625 C30.40453438 140.52700417 30.40453438 140.52700417 30.38285828 142.33592224 C30.34120903 146.07820972 30.32575328 149.82001405 30.3125 153.5625 C30.28346432 157.33689837 30.24901745 161.11117474 30.21000671 164.88548279 C30.1874703 167.22694862 30.17168089 169.56849065 30.16316223 171.91004944 C30.15612778 172.9588176 30.14909332 174.00758575 30.1418457 175.08813477 C30.13662651 176.47851707 30.13662651 176.47851707 30.13130188 177.89698792 C30 180 30 180 29 181 C26.86646826 181.10003289 24.72962458 181.13081048 22.59375 181.1328125 C21.29308594 181.13410156 19.99242187 181.13539063 18.65234375 181.13671875 C17.97155762 181.13462402 17.29077148 181.1325293 16.58935547 181.13037109 C14.50871485 181.1250224 12.42829011 181.1303168 10.34765625 181.13671875 C8.39666016 181.13478516 8.39666016 181.13478516 6.40625 181.1328125 C5.20291016 181.13168457 3.99957031 181.13055664 2.75976562 181.12939453 C0 181 0 181 -1 180 C-1.09930368 177.7136425 -1.12632455 175.4241483 -1.12698364 173.13563538 C-1.12854363 172.40931976 -1.13010362 171.68300415 -1.13171089 170.93467897 C-1.13572351 168.48255551 -1.13253023 166.03049314 -1.12939453 163.57836914 C-1.13074847 161.82779402 -1.13252836 160.07721919 -1.13470459 158.3266449 C-1.13928016 153.5581198 -1.13748877 148.78961624 -1.1343255 144.02109075 C-1.13180214 139.0411951 -1.13413941 134.06130136 -1.13571167 129.08140564 C-1.1375336 120.71580676 -1.13512661 112.35021669 -1.13037109 103.98461914 C-1.1249302 94.30130019 -1.12668978 84.6180023 -1.1321975 74.93468386 C-1.13673007 66.63491163 -1.13737842 58.33514575 -1.13475883 50.03537267 C-1.13319662 45.07216798 -1.13300073 40.10897319 -1.13629532 35.14576912 C-1.13917605 30.47962899 -1.13719458 25.8135161 -1.13140106 21.14737892 C-1.13007448 19.43084509 -1.13046587 17.71430897 -1.13266373 15.99777603 C-1.13537924 13.66226876 -1.13198911 11.32684985 -1.12698364 8.99134827 C-1.12660662 7.68185746 -1.12622959 6.37236666 -1.12584114 5.02319431 C-1 2 -1 2 0 0 Z " fill="#FEFEFE" transform="translate(855,93)"/>
<path d="M0 0 C1.01356567 -0.00426498 2.02713135 -0.00852997 3.07141113 -0.01292419 C4.1826384 -0.01247101 5.29386566 -0.01201782 6.43876648 -0.0115509 C7.60974884 -0.01490952 8.7807312 -0.01826813 9.98719788 -0.02172852 C13.20014062 -0.02960804 16.41304461 -0.03290656 19.62599587 -0.0335443 C21.63433563 -0.03425512 23.64266862 -0.03639008 25.6510067 -0.03904152 C32.66050522 -0.04829504 39.66998471 -0.05237652 46.67948914 -0.05158997 C53.20791881 -0.05098962 59.73626574 -0.06153295 66.26467448 -0.07733363 C71.87327885 -0.09042315 77.48185622 -0.09577325 83.09047574 -0.09513456 C86.4385601 -0.09487992 89.78651247 -0.09863422 93.13459206 -0.10831261 C96.87147011 -0.11810241 100.60813504 -0.11523815 104.34501648 -0.10920715 C105.45017105 -0.11482666 106.55532562 -0.12044617 107.69396973 -0.12623596 C119.3001038 -0.07860328 119.3001038 -0.07860328 124.21098328 3.82121277 C127.2149064 7.52605129 130.08598328 11.22225664 130.08598328 16.13371277 C130.74598328 16.13371277 131.40598328 16.13371277 132.08598328 16.13371277 C132.41598328 17.45371277 132.74598328 18.77371277 133.08598328 20.13371277 C133.74598328 20.13371277 134.40598328 20.13371277 135.08598328 20.13371277 C135.41598328 22.11371277 135.74598328 24.09371277 136.08598328 26.13371277 C137.07598328 26.46371277 138.06598328 26.79371277 139.08598328 27.13371277 C139.41598328 29.11371277 139.74598328 31.09371277 140.08598328 33.13371277 C141.07598328 33.46371277 142.06598328 33.79371277 143.08598328 34.13371277 C143.08598328 35.12371277 143.08598328 36.11371277 143.08598328 37.13371277 C143.74598328 37.13371277 144.40598328 37.13371277 145.08598328 37.13371277 C145.73593625 38.54849412 146.3807705 39.96562764 147.02348328 41.38371277 C147.38313171 42.17261902 147.74278015 42.96152527 148.11332703 43.77433777 C148.98631607 45.89194975 149.59936835 47.90040639 150.08598328 50.13371277 C150.74598328 50.13371277 151.40598328 50.13371277 152.08598328 50.13371277 C152.41598328 52.11371277 152.74598328 54.09371277 153.08598328 56.13371277 C154.07598328 56.46371277 155.06598328 56.79371277 156.08598328 57.13371277 C157.18363953 59.16496277 157.18363953 59.16496277 158.14848328 61.63371277 C159.3130033 65.09428088 159.3130033 65.09428088 162.08598328 67.13371277 C162.71098328 70.19621277 162.71098328 70.19621277 163.08598328 73.13371277 C163.74598328 73.13371277 164.40598328 73.13371277 165.08598328 73.13371277 C165.43648792 78.97545677 165.25325663 82.98689357 162.08598328 88.13371277 C161.42598328 88.13371277 160.76598328 88.13371277 160.08598328 88.13371277 C160.02410828 88.81433777 159.96223328 89.49496277 159.89848328 90.19621277 C158.9537418 93.61181657 157.40897891 95.68954514 155.29692078 98.48527527 C153.98163565 100.27576018 152.98039232 102.10096495 152.08598328 104.13371277 C151.42598328 104.13371277 150.76598328 104.13371277 150.08598328 104.13371277 C149.75598328 106.11371277 149.42598328 108.09371277 149.08598328 110.13371277 C148.09598328 110.46371277 147.10598328 110.79371277 146.08598328 111.13371277 C145.75598328 113.11371277 145.42598328 115.09371277 145.08598328 117.13371277 C144.42598328 117.13371277 143.76598328 117.13371277 143.08598328 117.13371277 C142.75598328 118.45371277 142.42598328 119.77371277 142.08598328 121.13371277 C141.42598328 121.13371277 140.76598328 121.13371277 140.08598328 121.13371277 C140.00348328 121.97933777 139.92098328 122.82496277 139.83598328 123.69621277 C138.92864475 127.85484768 137.32057054 130.52953976 135.08598328 134.13371277 C134.42598328 134.13371277 133.76598328 134.13371277 133.08598328 134.13371277 C132.75598328 135.45371277 132.42598328 136.77371277 132.08598328 138.13371277 C131.42598328 138.13371277 130.76598328 138.13371277 130.08598328 138.13371277 C130.00348328 138.97933777 129.92098328 139.82496277 129.83598328 140.69621277 C128.92864475 144.85484768 127.32057054 147.52953976 125.08598328 151.13371277 C124.42598328 151.13371277 123.76598328 151.13371277 123.08598328 151.13371277 C122.97125671 151.70090027 122.85653015 152.26808777 122.73832703 152.85246277 C122.0156061 155.37982216 120.96104573 157.35912383 119.64848328 159.63371277 C118.04271377 162.43302439 116.50302731 165.23371568 115.08598328 168.13371277 C114.42598328 168.13371277 113.76598328 168.13371277 113.08598328 168.13371277 C112.59098328 171.10371277 112.59098328 171.10371277 112.08598328 174.13371277 C111.42598328 174.13371277 110.76598328 174.13371277 110.08598328 174.13371277 C109.85910828 174.95871277 109.63223328 175.78371277 109.39848328 176.63371277 C107.84827007 180.76761466 105.97538535 184.75559878 103.08598328 188.13371277 C102.09598328 188.13371277 101.10598328 188.13371277 100.08598328 188.13371277 C100.08598328 188.79371277 100.08598328 189.45371277 100.08598328 190.13371277 C99.42598328 190.13371277 98.76598328 190.13371277 98.08598328 190.13371277 C98.08598328 189.47371277 98.08598328 188.81371277 98.08598328 188.13371277 C96.935495 188.03896667 96.935495 188.03896667 95.76176453 187.94230652 C93.08598328 187.13371277 93.08598328 187.13371277 91.50395203 184.91886902 C91.09789734 184.02039246 90.69184265 183.12191589 90.27348328 182.19621277 C89.85453796 181.30031433 89.43559265 180.40441589 89.00395203 179.48136902 C88.08598328 177.13371277 88.08598328 177.13371277 88.08598328 175.13371277 C87.42598328 175.13371277 86.76598328 175.13371277 86.08598328 175.13371277 C85.59098328 172.65871277 85.59098328 172.65871277 85.08598328 170.13371277 C84.42598328 170.13371277 83.76598328 170.13371277 83.08598328 170.13371277 C82.08598328 168.13371277 81.08598328 166.13371277 80.08598328 164.13371277 C79.69410828 163.45308777 79.30223328 162.77246277 78.89848328 162.07121277 C77.8898049 159.6659028 77.94254819 157.71554429 78.08598328 155.13371277 C77.42598328 155.13371277 76.76598328 155.13371277 76.08598328 155.13371277 C77.58469539 148.89850484 79.21884232 142.34594623 83.08598328 137.13371277 C83.74598328 137.13371277 84.40598328 137.13371277 85.08598328 137.13371277 C85.18008484 136.43890808 85.2741864 135.74410339 85.37113953 135.02824402 C86.2326121 131.53998621 87.70573214 128.91630254 89.52348328 125.82121277 C90.14094421 124.75257996 90.75840515 123.68394714 91.39457703 122.58293152 C91.95274109 121.77468933 92.51090515 120.96644714 93.08598328 120.13371277 C93.74598328 120.13371277 94.40598328 120.13371277 95.08598328 120.13371277 C95.27160828 118.67965027 95.27160828 118.67965027 95.46098328 117.19621277 C95.66723328 116.18558777 95.87348328 115.17496277 96.08598328 114.13371277 C96.74598328 113.80371277 97.40598328 113.47371277 98.08598328 113.13371277 C99.01991768 111.47810177 99.8870111 109.78420755 100.71098328 108.07121277 C101.1569989 107.15211121 101.60301453 106.23300964 102.06254578 105.28605652 C102.40028015 104.57578308 102.73801453 103.86550964 103.08598328 103.13371277 C103.74598328 103.13371277 104.40598328 103.13371277 105.08598328 103.13371277 C105.41598328 101.15371277 105.74598328 99.17371277 106.08598328 97.13371277 C106.74598328 97.13371277 107.40598328 97.13371277 108.08598328 97.13371277 C108.16848328 96.61808777 108.25098328 96.10246277 108.33598328 95.57121277 C109.40738553 92.08915545 111.22121932 89.26170392 113.08598328 86.13371277 C113.74598328 86.13371277 114.40598328 86.13371277 115.08598328 86.13371277 C115.41598328 84.15371277 115.74598328 82.17371277 116.08598328 80.13371277 C116.74598328 80.13371277 117.40598328 80.13371277 118.08598328 80.13371277 C118.20070984 79.56652527 118.3154364 78.99933777 118.43363953 78.41496277 C119.15636045 75.88760337 120.21092082 73.90830171 121.52348328 71.63371277 C123.12925279 68.83440115 124.66893924 66.03370986 126.08598328 63.13371277 C126.74598328 63.13371277 127.40598328 63.13371277 128.08598328 63.13371277 C128.26967468 62.29066589 128.26967468 62.29066589 128.45707703 61.43058777 C129.13797017 58.94384758 130.07950652 56.728565 131.14848328 54.38371277 C131.51070984 53.58449402 131.8729364 52.78527527 132.24613953 51.96183777 C132.52328796 51.35855652 132.8004364 50.75527527 133.08598328 50.13371277 C133.74598328 50.13371277 134.40598328 50.13371277 135.08598328 50.13371277 C135.41598328 48.81371277 135.74598328 47.49371277 136.08598328 46.13371277 C136.74598328 46.13371277 137.40598328 46.13371277 138.08598328 46.13371277 C138.08598328 45.47371277 138.08598328 44.81371277 138.08598328 44.13371277 C114.98598328 43.80371277 91.88598328 43.47371277 68.08598328 43.13371277 C68.08598328 42.47371277 68.08598328 41.81371277 68.08598328 41.13371277 C67.39107285 41.13593338 66.69616241 41.13815399 65.98019409 41.14044189 C59.43244772 41.16047602 52.8847099 41.17570286 46.33693981 41.18552494 C42.97064087 41.19074431 39.60436725 41.1978248 36.23808289 41.20915222 C32.36836573 41.22125176 28.49868461 41.2269488 24.62895203 41.23136902 C23.41950424 41.2365303 22.21005646 41.24169159 20.96395874 41.24700928 C19.28255547 41.24712257 19.28255547 41.24712257 17.56718445 41.24723816 C16.5790123 41.24945877 15.59084015 41.25167938 14.57272339 41.25396729 C12.08598328 41.13371277 12.08598328 41.13371277 9.08598328 40.13371277 C7.0920207 37.47287308 5.08598328 34.52128952 5.08598328 31.13371277 C4.42598328 31.13371277 3.76598328 31.13371277 3.08598328 31.13371277 C2.24528912 29.5333914 1.41366823 27.92830105 0.58598328 26.32121277 C0.12192078 25.42789246 -0.34214172 24.53457214 -0.82026672 23.61418152 C-1.91401672 21.13371277 -1.91401672 21.13371277 -1.91401672 18.13371277 C-2.57401672 18.13371277 -3.23401672 18.13371277 -3.91401672 18.13371277 C-4.94974568 16.39248727 -5.96714192 14.64034682 -6.97651672 12.88371277 C-7.82923157 11.42191589 -7.82923157 11.42191589 -8.69917297 9.93058777 C-9.91401672 7.13371277 -9.91401672 7.13371277 -9.66011047 4.89933777 C-9.12156225 3.62486763 -8.53277489 2.3712291 -7.91401672 1.13371277 C-4.96995419 0.15235859 -3.06792114 0.00583094 0 0 Z " fill="#FDFDFD" transform="translate(205.9140167236328,95.86628723144531)"/>
<path d="M0 0 C0.69179855 -0.00095673 1.38359711 -0.00191345 2.09635925 -0.00289917 C3.55976452 -0.00357917 5.02317281 -0.00173744 6.48657227 0.00244141 C8.71182149 0.00776787 10.93686663 0.002503 13.16210938 -0.00390625 C14.58724002 -0.00324496 16.01237055 -0.00196275 17.4375 0 C18.72760986 0.00112793 20.01771973 0.00225586 21.34692383 0.00341797 C24.63274679 0.12247766 27.69456324 0.50696282 30.91796875 1.1328125 C30.91796875 1.7928125 30.91796875 2.4528125 30.91796875 3.1328125 C31.90796875 3.1328125 32.89796875 3.1328125 33.91796875 3.1328125 C37.91796875 9.7578125 37.91796875 9.7578125 37.91796875 13.1328125 C38.90796875 13.4628125 39.89796875 13.7928125 40.91796875 14.1328125 C40.91796875 15.1228125 40.91796875 16.1128125 40.91796875 17.1328125 C41.57796875 17.1328125 42.23796875 17.1328125 42.91796875 17.1328125 C43.41296875 20.1028125 43.41296875 20.1028125 43.91796875 23.1328125 C44.90796875 23.4628125 45.89796875 23.7928125 46.91796875 24.1328125 C47.41296875 27.1028125 47.41296875 27.1028125 47.91796875 30.1328125 C48.57796875 30.1328125 49.23796875 30.1328125 49.91796875 30.1328125 C53.91796875 36.7578125 53.91796875 36.7578125 53.91796875 40.1328125 C55.40296875 40.6278125 55.40296875 40.6278125 56.91796875 41.1328125 C57.41296875 44.1028125 57.41296875 44.1028125 57.91796875 47.1328125 C58.57796875 47.1328125 59.23796875 47.1328125 59.91796875 47.1328125 C60.32789063 47.89207031 60.7378125 48.65132813 61.16015625 49.43359375 C61.69898438 50.42746094 62.2378125 51.42132813 62.79296875 52.4453125 C63.32664062 53.43144531 63.8603125 54.41757812 64.41015625 55.43359375 C65.92519001 58.22867708 65.92519001 58.22867708 67.91796875 61.1328125 C67.91796875 62.1228125 67.91796875 63.1128125 67.91796875 64.1328125 C68.57796875 64.1328125 69.23796875 64.1328125 69.91796875 64.1328125 C70.32789063 64.89207031 70.7378125 65.65132813 71.16015625 66.43359375 C71.69898438 67.42746094 72.2378125 68.42132813 72.79296875 69.4453125 C73.32664062 70.43144531 73.8603125 71.41757812 74.41015625 72.43359375 C75.92519001 75.22867708 75.92519001 75.22867708 77.91796875 78.1328125 C77.91796875 79.1228125 77.91796875 80.1128125 77.91796875 81.1328125 C78.57796875 81.1328125 79.23796875 81.1328125 79.91796875 81.1328125 C80.24796875 82.7828125 80.57796875 84.4328125 80.91796875 86.1328125 C81.57796875 86.1328125 82.23796875 86.1328125 82.91796875 86.1328125 C83.87884011 88.02736074 84.83655844 89.92350831 85.79296875 91.8203125 C86.32664062 92.87605469 86.8603125 93.93179688 87.41015625 95.01953125 C88.7048498 97.69277155 89.85820129 100.3599258 90.91796875 103.1328125 C91.57796875 103.1328125 92.23796875 103.1328125 92.91796875 103.1328125 C93.57796875 104.4528125 94.23796875 105.7728125 94.91796875 107.1328125 C96.87691236 107.01974553 96.87691236 107.01974553 98.91796875 106.1328125 C100.21457309 103.64246864 100.21457309 103.64246864 100.91796875 101.1328125 C101.57796875 101.1328125 102.23796875 101.1328125 102.91796875 101.1328125 C103.41296875 99.1528125 103.41296875 99.1528125 103.91796875 97.1328125 C104.57796875 97.1328125 105.23796875 97.1328125 105.91796875 97.1328125 C106.24796875 95.1528125 106.57796875 93.1728125 106.91796875 91.1328125 C107.90796875 90.8028125 108.89796875 90.4728125 109.91796875 90.1328125 C110.02109375 89.4109375 110.12421875 88.6890625 110.23046875 87.9453125 C110.98590822 84.85487829 112.0732819 82.71537409 113.91796875 80.1328125 C114.57796875 80.1328125 115.23796875 80.1328125 115.91796875 80.1328125 C116.24796875 78.1528125 116.57796875 76.1728125 116.91796875 74.1328125 C117.90796875 73.8028125 118.89796875 73.4728125 119.91796875 73.1328125 C120.24796875 71.1528125 120.57796875 69.1728125 120.91796875 67.1328125 C121.57796875 67.1328125 122.23796875 67.1328125 122.91796875 67.1328125 C123.24796875 65.8128125 123.57796875 64.4928125 123.91796875 63.1328125 C124.57796875 63.1328125 125.23796875 63.1328125 125.91796875 63.1328125 C126.07265625 61.7715625 126.07265625 61.7715625 126.23046875 60.3828125 C126.93474369 57.05351276 127.79702303 55.69562191 129.91796875 53.1328125 C130.24796875 52.1428125 130.57796875 51.1528125 130.91796875 50.1328125 C131.57796875 50.1328125 132.23796875 50.1328125 132.91796875 50.1328125 C133.18609375 49.4315625 133.45421875 48.7303125 133.73046875 48.0078125 C134.98771641 44.96394974 136.42142754 42.06603328 137.91796875 39.1328125 C138.47484375 38.0190625 139.03171875 36.9053125 139.60546875 35.7578125 C140.03859375 34.8915625 140.47171875 34.0253125 140.91796875 33.1328125 C141.57796875 33.1328125 142.23796875 33.1328125 142.91796875 33.1328125 C143.18609375 32.4315625 143.45421875 31.7303125 143.73046875 31.0078125 C144.98771641 27.96394974 146.42142754 25.06603328 147.91796875 22.1328125 C148.47484375 21.0190625 149.03171875 19.9053125 149.60546875 18.7578125 C150.03859375 17.8915625 150.47171875 17.0253125 150.91796875 16.1328125 C151.57796875 16.1328125 152.23796875 16.1328125 152.91796875 16.1328125 C153.24796875 14.4828125 153.57796875 12.8328125 153.91796875 11.1328125 C154.57796875 11.1328125 155.23796875 11.1328125 155.91796875 11.1328125 C156.00046875 10.5553125 156.08296875 9.9778125 156.16796875 9.3828125 C157.13594662 6.4788789 158.60491159 5.09540646 160.91796875 3.1328125 C161.57796875 3.1328125 162.23796875 3.1328125 162.91796875 3.1328125 C162.91796875 2.4728125 162.91796875 1.8128125 162.91796875 1.1328125 C176.44796875 1.1328125 189.97796875 1.1328125 203.91796875 1.1328125 C206.03229943 5.36147386 206.18755211 5.90086796 204.91796875 10.1328125 C203.85546875 12.4453125 203.85546875 12.4453125 202.91796875 14.1328125 C202.25796875 14.1328125 201.59796875 14.1328125 200.91796875 14.1328125 C200.85609375 14.7928125 200.79421875 15.4528125 200.73046875 16.1328125 C199.77738096 19.65190588 198.17335016 22.15081963 196.171875 25.16796875 C194.93726127 27.10258153 193.90843024 29.06436036 192.91796875 31.1328125 C192.25796875 31.1328125 191.59796875 31.1328125 190.91796875 31.1328125 C190.58796875 33.1128125 190.25796875 35.0928125 189.91796875 37.1328125 C189.25796875 37.1328125 188.59796875 37.1328125 187.91796875 37.1328125 C187.83546875 37.6484375 187.75296875 38.1640625 187.66796875 38.6953125 C186.5965665 42.17736982 184.7827327 45.00482135 182.91796875 48.1328125 C182.25796875 48.1328125 181.59796875 48.1328125 180.91796875 48.1328125 C180.58796875 50.1128125 180.25796875 52.0928125 179.91796875 54.1328125 C179.25796875 54.1328125 178.59796875 54.1328125 177.91796875 54.1328125 C177.83546875 54.6484375 177.75296875 55.1640625 177.66796875 55.6953125 C176.5965665 59.17736982 174.7827327 62.00482135 172.91796875 65.1328125 C172.25796875 65.1328125 171.59796875 65.1328125 170.91796875 65.1328125 C170.58796875 67.1128125 170.25796875 69.0928125 169.91796875 71.1328125 C169.25796875 71.1328125 168.59796875 71.1328125 167.91796875 71.1328125 C167.57765625 72.3703125 167.57765625 72.3703125 167.23046875 73.6328125 C165.87681653 77.24255174 164.16135891 80.10789021 162.0390625 83.30078125 C160.75606989 85.24276324 160.75606989 85.24276324 159.91796875 88.1328125 C159.25796875 88.1328125 158.59796875 88.1328125 157.91796875 88.1328125 C157.57765625 89.3703125 157.57765625 89.3703125 157.23046875 90.6328125 C155.87681653 94.24255174 154.16135891 97.10789021 152.0390625 100.30078125 C150.75606989 102.24276324 150.75606989 102.24276324 149.91796875 105.1328125 C149.25796875 105.1328125 148.59796875 105.1328125 147.91796875 105.1328125 C147.83546875 105.8546875 147.75296875 106.5765625 147.66796875 107.3203125 C146.76083044 110.72208118 145.31785996 112.58747334 142.91796875 115.1328125 C142.25796875 115.1328125 141.59796875 115.1328125 140.91796875 115.1328125 C140.91796875 115.7928125 140.91796875 116.4528125 140.91796875 117.1328125 C137.29275838 118.34121596 133.97857059 118.27252382 130.20532227 118.26220703 C129.42127014 118.26395935 128.63721802 118.26571167 127.82940674 118.26751709 C125.23520704 118.27192158 122.64107541 118.26900225 120.046875 118.265625 C118.24470507 118.26629851 116.44253522 118.26726893 114.6403656 118.26852417 C110.86171606 118.2699993 107.08309015 118.26785276 103.30444336 118.26318359 C98.46105089 118.25749051 93.61771389 118.26076382 88.77432346 118.26675606 C85.05201296 118.27037013 81.3297156 118.26921911 77.60740471 118.26662827 C75.82162405 118.26596113 74.03584221 118.26677998 72.25006294 118.26910782 C69.75334643 118.27164773 67.2567196 118.26777462 64.76000977 118.26220703 C63.65253639 118.26524338 63.65253639 118.26524338 62.52268982 118.26834106 C59.17941533 118.2545322 56.11429596 118.17416829 52.91796875 117.1328125 C52.91796875 116.4728125 52.91796875 115.8128125 52.91796875 115.1328125 C51.92796875 115.1328125 50.93796875 115.1328125 49.91796875 115.1328125 C45.91796875 108.5078125 45.91796875 108.5078125 45.91796875 105.1328125 C44.92796875 104.8028125 43.93796875 104.4728125 42.91796875 104.1328125 C42.91796875 103.1428125 42.91796875 102.1528125 42.91796875 101.1328125 C42.25796875 101.1328125 41.59796875 101.1328125 40.91796875 101.1328125 C40.58796875 99.1528125 40.25796875 97.1728125 39.91796875 95.1328125 C38.92796875 94.8028125 37.93796875 94.4728125 36.91796875 94.1328125 C36.58796875 92.1528125 36.25796875 90.1728125 35.91796875 88.1328125 C35.25796875 88.1328125 34.59796875 88.1328125 33.91796875 88.1328125 C33.50804687 87.37355469 33.098125 86.61429687 32.67578125 85.83203125 C32.13695312 84.83816406 31.598125 83.84429687 31.04296875 82.8203125 C30.50929687 81.83417969 29.975625 80.84804688 29.42578125 79.83203125 C27.91074749 77.03694792 27.91074749 77.03694792 25.91796875 74.1328125 C25.91796875 73.1428125 25.91796875 72.1528125 25.91796875 71.1328125 C25.25796875 71.1328125 24.59796875 71.1328125 23.91796875 71.1328125 C23.58796875 69.1528125 23.25796875 67.1728125 22.91796875 65.1328125 C21.92796875 64.8028125 20.93796875 64.4728125 19.91796875 64.1328125 C18.8203125 62.1015625 18.8203125 62.1015625 17.85546875 59.6328125 C16.69094872 56.17224438 16.69094872 56.17224438 13.91796875 54.1328125 C13.29296875 51.0703125 13.29296875 51.0703125 12.91796875 48.1328125 C12.25796875 48.1328125 11.59796875 48.1328125 10.91796875 48.1328125 C10.0772746 46.53249113 9.2456537 44.92740079 8.41796875 43.3203125 C7.721875 41.98033203 7.721875 41.98033203 7.01171875 40.61328125 C5.91796875 38.1328125 5.91796875 38.1328125 5.91796875 35.1328125 C4.43296875 34.6378125 4.43296875 34.6378125 2.91796875 34.1328125 C2.91796875 33.1428125 2.91796875 32.1528125 2.91796875 31.1328125 C2.25796875 31.1328125 1.59796875 31.1328125 0.91796875 31.1328125 C0.0772746 29.53249113 -0.7543463 27.92740079 -1.58203125 26.3203125 C-2.04609375 25.42699219 -2.51015625 24.53367188 -2.98828125 23.61328125 C-4.08203125 21.1328125 -4.08203125 21.1328125 -4.08203125 18.1328125 C-5.07203125 17.8028125 -6.06203125 17.4728125 -7.08203125 17.1328125 C-7.08203125 16.1428125 -7.08203125 15.1528125 -7.08203125 14.1328125 C-7.74203125 14.1328125 -8.40203125 14.1328125 -9.08203125 14.1328125 C-12.14806899 8.85922759 -12.14806899 8.85922759 -11.83203125 5.3828125 C-11.08203125 3.1328125 -11.08203125 3.1328125 -10.08203125 1.1328125 C-6.54785563 -0.04524604 -3.72898833 0.00326879 0 0 Z " fill="#FDFDFD" transform="translate(208.08203125,208.8671875)"/>
<path d="M0 0 C5.78406969 -0.07410115 11.56786371 -0.12857885 17.35229492 -0.16479492 C19.32044283 -0.17989082 21.28855706 -0.20036948 23.2565918 -0.22631836 C26.08390612 -0.26266649 28.9107761 -0.27971814 31.73828125 -0.29296875 C33.06029289 -0.31619453 33.06029289 -0.31619453 34.40901184 -0.33988953 C35.22963608 -0.34011612 36.05026031 -0.34034271 36.89575195 -0.34057617 C37.61745071 -0.34723801 38.33914948 -0.35389984 39.0827179 -0.36076355 C41.58040115 0.10921063 42.44862295 1.0236315 44 3 C45.40164939 8.22432953 45.09549851 13.63086147 45 19 C45.66 19 46.32 19 47 19 C47.13277344 20.28777344 47.26554687 21.57554688 47.40234375 22.90234375 C47.58049899 24.58075362 47.75889692 26.25913773 47.9375 27.9375 C48.02451172 28.78763672 48.11152344 29.63777344 48.20117188 30.51367188 C48.28818359 31.32255859 48.37519531 32.13144531 48.46484375 32.96484375 C48.543396 33.7137085 48.62194824 34.46257324 48.70288086 35.23413086 C48.8280738 37.02140013 48.8280738 37.02140013 50 38 C50.35426437 40.50068968 50.66123277 42.99054921 50.9375 45.5 C51.54929932 50.75683492 52.31982824 55.84985678 53.55859375 61 C55.08936618 67.93588923 55.1328516 74.9293426 55 82 C55.66 82 56.32 82 57 82 C57.495 90.91 57.495 90.91 58 100 C58.66 100 59.32 100 60 100 C60.13277344 101.13179688 60.26554687 102.26359375 60.40234375 103.4296875 C60.5805342 104.91148179 60.75893029 106.39325136 60.9375 107.875 C61.02451172 108.62136719 61.11152344 109.36773437 61.20117188 110.13671875 C61.63326063 114.1953231 61.63326063 114.1953231 63 118 C63.27914223 119.94394792 63.51100735 121.89478736 63.71875 123.84765625 C63.84636719 125.00974609 63.97398438 126.17183594 64.10546875 127.36914062 C64.36890215 129.83524242 64.6319217 132.30138846 64.89453125 134.76757812 C65.02214844 135.92837891 65.14976563 137.08917969 65.28125 138.28515625 C65.39533203 139.35644775 65.50941406 140.42773926 65.62695312 141.53149414 C65.74100059 143.93883659 65.74100059 143.93883659 67 145 C67.47930671 148.20536362 67.87206832 151.41058178 68.25 154.62890625 C68.40362705 158.11109275 68.40362705 158.11109275 70 161 C71.04923711 167.29542264 71.38108361 173.62245369 71 180 C70 181 70 181 67.22436523 181.11352539 C66.01466064 181.10828857 64.80495605 181.10305176 63.55859375 181.09765625 C62.25341797 181.09443359 60.94824219 181.09121094 59.60351562 181.08789062 C58.2148431 181.07953401 56.82617123 181.07106905 55.4375 181.0625 C54.04492344 181.05748666 52.65234519 181.05292347 51.25976562 181.04882812 C47.8398013 181.03699434 44.41992156 181.0205088 41 181 C39.15618612 177.54597343 37.65997016 174.6447872 37.33984375 170.72265625 C37.26830078 169.96146484 37.19675781 169.20027344 37.12304688 168.41601562 C37.03120117 167.25102539 37.03120117 167.25102539 36.9375 166.0625 C36.80682318 164.51119794 36.6701798 162.96038603 36.52734375 161.41015625 C36.47312256 160.73090088 36.41890137 160.05164551 36.36303711 159.35180664 C35.8725248 156.17419729 34.88329587 153.09153553 34 150 C24.1 149.67 14.2 149.34 4 149 C3.71111787 154.17527585 3.71111787 154.17527585 3.43188477 159.35107422 C3.11111111 164.77777778 3.11111111 164.77777778 2 167 C1.47848039 170.37015615 1.03841355 173.7472977 0.59765625 177.12890625 C0.40042969 178.07636719 0.20320312 179.02382813 0 180 C-2.63997649 181.31998825 -4.64077317 181.12956032 -7.59375 181.1328125 C-9.26244141 181.13474609 -9.26244141 181.13474609 -10.96484375 181.13671875 C-12.13144531 181.13285156 -13.29804687 181.12898437 -14.5 181.125 C-16.24990234 181.13080078 -16.24990234 181.13080078 -18.03515625 181.13671875 C-19.14761719 181.13542969 -20.26007812 181.13414062 -21.40625 181.1328125 C-22.43041016 181.13168457 -23.45457031 181.13055664 -24.50976562 181.12939453 C-27 181 -27 181 -29 180 C-29 175.71 -29 171.42 -29 167 C-28.34 167 -27.68 167 -27 167 C-27.05027344 165.69160156 -27.10054687 164.38320313 -27.15234375 163.03515625 C-27.15112723 156.13625612 -26.02424879 149.41726007 -24.91870117 142.62866211 C-24.55835567 140.41200625 -24.21098222 138.19358445 -23.86523438 135.97460938 C-22.14545157 125.14545157 -22.14545157 125.14545157 -21 124 C-20.78623486 122.60013525 -20.62977396 121.19138317 -20.5 119.78125 C-20.4175 118.93175781 -20.335 118.08226562 -20.25 117.20703125 C-20.12625 115.86705078 -20.12625 115.86705078 -20 114.5 C-19.83738683 112.73920428 -19.67092644 110.97875817 -19.5 109.21875 C-19.4278125 108.43435547 -19.355625 107.64996094 -19.28125 106.84179688 C-19 105 -19 105 -18 104 C-17.71440083 102.32098341 -17.48524383 100.63227884 -17.28125 98.94140625 C-17.15363281 97.91595703 -17.02601563 96.89050781 -16.89453125 95.83398438 C-16.76433594 94.75439453 -16.63414062 93.67480469 -16.5 92.5625 C-16.24291848 90.43839577 -15.98265886 88.31467302 -15.71875 86.19140625 C-15.60466797 85.24467041 -15.49058594 84.29793457 -15.37304688 83.32250977 C-15 81 -15 81 -14 79 C-13.79465218 77.63939241 -13.63408839 76.27181118 -13.5 74.90234375 C-13.4175 74.10119141 -13.335 73.30003906 -13.25 72.47460938 C-13.08295212 70.7793344 -12.91628718 69.08402164 -12.75 67.38867188 C-12.1015274 61.1015274 -12.1015274 61.1015274 -11 60 C-10.599617 57.14471393 -10.2481773 54.30263513 -9.9375 51.4375 C-9.84662109 50.63119141 -9.75574219 49.82488281 -9.66210938 48.99414062 C-9.43752551 46.99652623 -9.21826764 44.9983144 -9 43 C-8.34 43 -7.68 43 -7 43 C-7.04125 41.824375 -7.0825 40.64875 -7.125 39.4375 C-7.13584656 32.64755219 -7.06704318 23.13408636 -4 17 C-3.6087065 14.45802036 -3.25520881 11.92608411 -2.9375 9.375 C-2.84662109 8.66859375 -2.75574219 7.9621875 -2.66210938 7.234375 C-2.43816881 5.4899959 -2.21866182 3.74504866 -2 2 C-1.34 2 -0.68 2 0 2 C0 1.34 0 0.68 0 0 Z M18 44 C17.20318916 52.02502344 16.87132711 59.93649887 17 68 C16.34 68 15.68 68 15 68 C14.87153687 69.16571533 14.87153687 69.16571533 14.74047852 70.35498047 C14.35176055 73.86210367 13.95720557 77.36854584 13.5625 80.875 C13.42779297 82.09832031 13.29308594 83.32164062 13.15429688 84.58203125 C12.95610352 86.33193359 12.95610352 86.33193359 12.75390625 88.1171875 C12.63345947 89.19597168 12.5130127 90.27475586 12.38891602 91.38623047 C12 94 12 94 11 96 C10.84995027 97.3734635 10.75161994 98.7528526 10.68359375 100.1328125 C10.64169922 100.93847656 10.59980469 101.74414062 10.55664062 102.57421875 C10.49766602 103.83685547 10.49766602 103.83685547 10.4375 105.125 C10.39431641 105.97449219 10.35113281 106.82398438 10.30664062 107.69921875 C10.20045764 109.79928223 10.09971503 111.89961948 10 114 C9.34 114 8.68 114 8 114 C8 116.31 8 118.62 8 121 C15.26 121 22.52 121 30 121 C30 116.71 30 112.42 30 108 C29.34 108 28.68 108 28 108 C28.01160156 107.40574219 28.02320313 106.81148437 28.03515625 106.19921875 C28.16423183 94.85848639 28.16423183 94.85848639 26.03125 83.7890625 C24.78768248 79.21989395 24.31137608 74.76606186 23.875 70.0625 C23.78863281 69.18787109 23.70226562 68.31324219 23.61328125 67.41210938 C23.40310303 65.27529746 23.20074482 63.13771878 23 61 C22.34 61 21.68 61 21 61 C21.01160156 60.10796875 21.02320313 59.2159375 21.03515625 58.296875 C21.04417969 57.12640625 21.05320312 55.9559375 21.0625 54.75 C21.07410156 53.58984375 21.08570313 52.4296875 21.09765625 51.234375 C21.01782092 48.59022872 20.78643778 46.50173909 20 44 C19.34 44 18.68 44 18 44 Z " fill="#FEFEFE" transform="translate(981,93)"/>
<path d="M0 0 C16.65457669 -0.0466746 33.30913223 -0.08196651 49.96375847 -0.10362434 C57.69640155 -0.11394673 65.42900405 -0.12802538 73.16162109 -0.15087891 C79.89961591 -0.1707834 86.63758135 -0.18370943 93.37560475 -0.18817699 C96.94492741 -0.19078938 100.51416599 -0.19694944 104.08346176 -0.21146011 C108.06330722 -0.22750932 112.04306963 -0.22798158 116.02294922 -0.22705078 C117.2126532 -0.23424133 118.40235718 -0.24143188 119.62811279 -0.24884033 C121.24775436 -0.24471634 121.24775436 -0.24471634 122.90011597 -0.24050903 C123.8421884 -0.24235262 124.78426083 -0.24419621 125.75488091 -0.24609566 C128 0 128 0 130 2 C130.65460854 8.43698402 129.56483487 11.65274769 126 17 C125.34 17 124.68 17 124 17 C123.67 18.32 123.34 19.64 123 21 C122.34 21 121.68 21 121 21 C120.9175 21.845625 120.835 22.69125 120.75 23.5625 C119.84266147 27.72113491 118.23458727 30.39582699 116 34 C115.34 34 114.68 34 114 34 C113.67 35.32 113.34 36.64 113 38 C112.34 38 111.68 38 111 38 C111 38.66 111 39.32 111 40 C108.00867834 40.99710722 106.05435046 41.12341188 102.93171692 41.12025452 C101.36049828 41.12231651 101.36049828 41.12231651 99.75753784 41.12442017 C98.03447922 41.11902725 98.03447922 41.11902725 96.27661133 41.11352539 C94.46179008 41.11374443 94.46179008 41.11374443 92.61030579 41.1139679 C89.29238309 41.11339019 85.97452244 41.1083714 82.65661073 41.10139394 C79.18926313 41.09514695 75.72191473 41.09455553 72.25456238 41.09336853 C65.68853396 41.09025919 59.12252218 41.08205114 52.55650109 41.07201904 C45.08136444 41.0608456 37.606227 41.05534435 30.13108408 41.05032361 C14.75404642 41.03986821 -0.62297465 41.02227643 -16 41 C-16 42.65 -16 44.3 -16 46 C-15.34 46 -14.68 46 -14 46 C-13.28385417 47.72526042 -12.56770833 49.45052083 -11.8515625 51.17578125 C-10.93193308 53.26533932 -10.93193308 53.26533932 -9 56 C-9 56.99 -9 57.98 -9 59 C-8.34 59 -7.68 59 -7 59 C-6.67386719 59.66386719 -6.34773438 60.32773438 -6.01171875 61.01171875 C-3.26958181 66.56736191 -3.26958181 66.56736191 -0.1875 71.9375 C1 74 1 74 1 77 C1.66 77 2.32 77 3 77 C3.33 78.65 3.66 80.3 4 82 C4.66 82 5.32 82 6 82 C6.40992188 82.83144531 6.81984375 83.66289062 7.2421875 84.51953125 C7.78101563 85.60621094 8.31984375 86.69289063 8.875 87.8125 C9.40867188 88.89144531 9.94234375 89.97039062 10.4921875 91.08203125 C11.97221139 94.07838265 11.97221139 94.07838265 14 97 C14 97.99 14 98.98 14 100 C14.66 100 15.32 100 16 100 C16.83819158 101.62249941 17.6704116 103.24808497 18.5 104.875 C18.9640625 105.77992188 19.428125 106.68484375 19.90625 107.6171875 C21 110 21 110 21 112 C21.66 112 22.32 112 23 112 C23.32613281 112.66386719 23.65226562 113.32773437 23.98828125 114.01171875 C26.73041819 119.56736191 26.73041819 119.56736191 29.8125 124.9375 C31 127 31 127 31 130 C31.66 130 32.32 130 33 130 C34.34130761 132.26645058 35.67316234 134.53760097 37 136.8125 C37.3815625 137.45509766 37.763125 138.09769531 38.15625 138.75976562 C41 143.66015625 41 143.66015625 41 147 C41.66 147 42.32 147 43 147 C43 150.63 43 154.26 43 158 C42.34 158 41.68 158 41 158 C40.896875 158.9075 40.79375 159.815 40.6875 160.75 C39.98322506 164.07929974 39.12094572 165.43719059 37 168 C36.67 168.99 36.34 169.98 36 171 C35.34 171 34.68 171 34 171 C33.67 172.65 33.34 174.3 33 176 C32.34 176 31.68 176 31 176 C30.5978125 177.60875 30.5978125 177.60875 30.1875 179.25 C29.13882569 182.56160307 28.37247839 184.52866834 26 187 C25.34 187 24.68 187 24 187 C24 187.66 24 188.32 24 189 C22.35 189 20.7 189 19 189 C19 188.34 19 187.68 19 187 C18.01 186.67 17.02 186.34 16 186 C16 185.34 16 184.68 16 184 C15.34 184 14.68 184 14 184 C13.15930585 182.39967863 12.32768495 180.79458829 11.5 179.1875 C11.0359375 178.29417969 10.571875 177.40085937 10.09375 176.48046875 C9 174 9 174 9 171 C8.34 171 7.68 171 7 171 C6.67386719 170.33613281 6.34773438 169.67226563 6.01171875 168.98828125 C3.26958181 163.43263809 3.26958181 163.43263809 0.1875 158.0625 C-1 156 -1 156 -1 153 C-1.66 153 -2.32 153 -3 153 C-4.69140625 150.55078125 -4.69140625 150.55078125 -6.5625 147.3125 C-7.18253906 146.25675781 -7.80257812 145.20101562 -8.44140625 144.11328125 C-9.84706847 141.30547977 -10.58183023 139.08758226 -11 136 C-11.66 136 -12.32 136 -13 136 C-13.33 134.35 -13.66 132.7 -14 131 C-14.66 131 -15.32 131 -16 131 C-16.61488281 129.75283203 -16.61488281 129.75283203 -17.2421875 128.48046875 C-17.78101563 127.39378906 -18.31984375 126.30710937 -18.875 125.1875 C-19.40867188 124.10855469 -19.94234375 123.02960938 -20.4921875 121.91796875 C-21.97221139 118.92161735 -21.97221139 118.92161735 -24 116 C-24 115.01 -24 114.02 -24 113 C-24.66 113 -25.32 113 -26 113 C-26.84114171 111.56705502 -27.67265687 110.12845595 -28.5 108.6875 C-28.9640625 107.88699219 -29.428125 107.08648437 -29.90625 106.26171875 C-31 104 -31 104 -31 101 C-31.66 101 -32.32 101 -33 101 C-33.391875 100.195625 -33.78375 99.39125 -34.1875 98.5625 C-36.02180782 94.95713636 -37.99179656 91.45670685 -40.01171875 87.953125 C-41 86 -41 86 -41 84 C-41.66 84 -42.32 84 -43 84 C-43.89214652 81.32356043 -44.13540211 79.74615622 -44.125 77 C-44.12757813 76.319375 -44.13015625 75.63875 -44.1328125 74.9375 C-44 73 -44 73 -43 70 C-42.34 70 -41.68 70 -41 70 C-40.9071875 68.7315625 -40.9071875 68.7315625 -40.8125 67.4375 C-39.9168521 63.64822044 -38.53706561 61.70499863 -36.2109375 58.6796875 C-34.70357359 56.58882788 -33.81246743 54.43740228 -33 52 C-32.34 52 -31.68 52 -31 52 C-30.34 50.02 -29.68 48.04 -29 46 C-28.34 46 -27.68 46 -27 46 C-26.67 44.02 -26.34 42.04 -26 40 C-25.34 40 -24.68 40 -24 40 C-23.938125 39.34 -23.87625 38.68 -23.8125 38 C-22.85941221 34.48090662 -21.25538141 31.98199287 -19.25390625 28.96484375 C-18.01929252 27.03023097 -16.99046149 25.06845214 -16 23 C-15.34 23 -14.68 23 -14 23 C-13.67 21.68 -13.34 20.36 -13 19 C-12.34 19 -11.68 19 -11 19 C-10.9175 18.154375 -10.835 17.30875 -10.75 16.4375 C-9.84266147 12.27886509 -8.23458727 9.60417301 -6 6 C-5.34 6 -4.68 6 -4 6 C-3.67 5.01 -3.34 4.02 -3 3 C-2.34 3 -1.68 3 -1 3 C-0.67 2.01 -0.34 1.02 0 0 Z " fill="#FDFDFD" transform="translate(185,153)"/>
<path d="M0 0 C9.85723081 -0.11575743 19.71430043 -0.20464577 29.57207203 -0.25906086 C34.14928474 -0.28517521 38.7260331 -0.32060617 43.30297852 -0.37719727 C47.71854412 -0.43145246 52.1336626 -0.46140668 56.54953575 -0.47438622 C58.23573537 -0.48363788 59.92191001 -0.50170429 61.60791969 -0.52865028 C63.96677492 -0.56485657 66.32377377 -0.56994922 68.68286133 -0.56762695 C69.38273163 -0.58560333 70.08260193 -0.60357971 70.80368042 -0.62210083 C72.75398254 -0.60127258 72.75398254 -0.60127258 76 0 C78.58557993 3.19572251 79.3809157 5.65134004 79.3984375 9.72265625 C79.40230469 10.59083984 79.40617188 11.45902344 79.41015625 12.35351562 C79.39855469 13.24748047 79.38695312 14.14144531 79.375 15.0625 C79.38660156 15.96033203 79.39820313 16.85816406 79.41015625 17.78320312 C79.40628906 18.65009766 79.40242187 19.51699219 79.3984375 20.41015625 C79.39505371 21.19527588 79.39166992 21.98039551 79.38818359 22.78930664 C78.89132175 25.61891923 77.95262155 26.90403449 76 29 C73.89289856 29.48101807 73.89289856 29.48101807 71.43676758 29.45410156 C70.51603958 29.45379944 69.59531158 29.45349731 68.64668274 29.45318604 C67.16061775 29.42221832 67.16061775 29.42221832 65.64453125 29.390625 C64.62775803 29.38496521 63.6109848 29.37930542 62.56340027 29.37347412 C59.31262328 29.35106519 56.06294441 29.30085942 52.8125 29.25 C50.61004195 29.22994089 48.40756664 29.2116891 46.20507812 29.1953125 C40.80262098 29.15458534 35.40254099 29.07630109 30 29 C30 43.85 30 58.7 30 74 C32.31 74 34.62 74 37 74 C37 74.66 37 75.32 37 76 C37.93457031 75.67773438 38.86914062 75.35546875 39.83203125 75.0234375 C44.75009859 73.6246416 49.60523456 73.6320833 54.6875 73.625 C56.09225586 73.58826172 56.09225586 73.58826172 57.52539062 73.55078125 C58.87987305 73.54498047 58.87987305 73.54498047 60.26171875 73.5390625 C61.07600342 73.53084473 61.89028809 73.52262695 62.72924805 73.51416016 C65.90553633 74.19374447 67.07026034 75.42065311 69 78 C69.45410156 80.56542969 69.45410156 80.56542969 69.390625 83.421875 C69.37773438 84.44667969 69.36484375 85.47148437 69.3515625 86.52734375 C69.31804687 87.59082031 69.28453125 88.65429688 69.25 89.75 C69.23195313 90.82894531 69.21390625 91.90789062 69.1953125 93.01953125 C69.14821415 95.68058788 69.082456 98.33984254 69 101 C68.34 101 67.68 101 67 101 C66.505 102.485 66.505 102.485 66 104 C54.12 104 42.24 104 30 104 C30.33 119.84 30.66 135.68 31 152 C45.01625463 151.96043543 45.01625463 151.96043543 59.0324707 151.90991211 C60.7885736 151.90699172 62.54467718 151.90444345 64.30078125 151.90234375 C65.21388062 151.89722778 66.12697998 151.89211182 67.06774902 151.88684082 C68.37673157 151.88665955 68.37673157 151.88665955 69.7121582 151.88647461 C70.46938675 151.884254 71.2266153 151.88203339 72.00679016 151.87974548 C74 152 74 152 77 153 C77 153.99 77 154.98 77 156 C77.66 156 78.32 156 79 156 C79 163.26 79 170.52 79 178 C78.34 178 77.68 178 77 178 C77 178.99 77 179.98 77 181 C51.59 181 26.18 181 0 181 C-0.33 180.01 -0.66 179.02 -1 178 C-1.66 178 -2.32 178 -3 178 C-3 125.53 -3 73.06 -3 19 C-2.34 19 -1.68 19 -1 19 C-1.01160156 17.79601562 -1.02320313 16.59203125 -1.03515625 15.3515625 C-1.04453434 13.77604321 -1.05363452 12.20052225 -1.0625 10.625 C-1.07087891 9.8309375 -1.07925781 9.036875 -1.08789062 8.21875 C-1.11328125 2.2265625 -1.11328125 2.2265625 0 0 Z " fill="#FEFEFE" transform="translate(762,93)"/>
<path d="M0 0 C9.72692737 -0.06945668 19.45379591 -0.12278917 29.1809206 -0.15543652 C33.69744426 -0.17110424 38.21379848 -0.19236257 42.73022461 -0.22631836 C47.08740597 -0.25887255 51.44442418 -0.27684468 55.80171776 -0.28463173 C57.46554318 -0.29018235 59.1293595 -0.30102118 60.79311562 -0.31719017 C63.12049404 -0.33891251 65.44719501 -0.34196917 67.7746582 -0.34057617 C68.46517776 -0.351362 69.15569733 -0.36214783 69.86714172 -0.3732605 C72.71316701 -0.35478245 74.56720199 -0.30620594 76.92831421 1.36428833 C78.49412121 3.75417612 78.37193751 5.63550771 78.36328125 8.47265625 C78.36231445 10.06883789 78.36231445 10.06883789 78.36132812 11.69726562 C78.34521484 12.80779297 78.32910156 13.91832031 78.3125 15.0625 C78.31572266 16.17689453 78.31894531 17.29128906 78.32226562 18.43945312 C78.26694139 26.73305861 78.26694139 26.73305861 76 29 C74.01315308 29.24050903 74.01315308 29.24050903 71.55029297 29.22705078 C70.62948944 29.22689972 69.70868591 29.22674866 68.75997925 29.22659302 C67.76410797 29.21627045 66.76823669 29.20594788 65.7421875 29.1953125 C64.72399933 29.1924826 63.70581116 29.18965271 62.6567688 29.18673706 C59.396061 29.1755177 56.13562516 29.15040996 52.875 29.125 C50.66797271 29.11497247 48.46094112 29.10584623 46.25390625 29.09765625 C40.83574773 29.07727191 35.41817927 29.03812636 30 29 C30 43.85 30 58.7 30 74 C41.55 74 53.1 74 65 74 C65 74.66 65 75.32 65 76 C66.485 76.495 66.485 76.495 68 77 C68.02886537 81.31248609 68.04675255 85.62494762 68.0625 89.9375 C68.07087891 91.16919922 68.07925781 92.40089844 68.08789062 93.66992188 C68.09111328 94.83974609 68.09433594 96.00957031 68.09765625 97.21484375 C68.10289307 98.29886475 68.10812988 99.38288574 68.11352539 100.49975586 C68 103 68 103 67 104 C64.26129758 104.08857875 61.54725017 104.11530707 58.80859375 104.09765625 C58.08224731 104.09664917 57.35590088 104.09564209 56.60754395 104.09460449 C53.88417999 104.08935716 51.16083847 104.075396 48.4375 104.0625 C42.353125 104.041875 36.26875 104.02125 30 104 C30 119.84 30 135.68 30 152 C41.16932604 152 52.20581305 151.7532824 63.33984375 151.09179688 C64.51933594 151.03701172 65.69882813 150.98222656 66.9140625 150.92578125 C67.9654541 150.86817627 69.0168457 150.81057129 70.10009766 150.7512207 C73.59932591 151.05141548 75.34262955 151.69499639 78 154 C78.58349609 156.71142578 78.58349609 156.71142578 78.5234375 159.9453125 C78.51183594 161.10417969 78.50023437 162.26304687 78.48828125 163.45703125 C78.45089844 164.66746094 78.41351562 165.87789062 78.375 167.125 C78.36082031 168.34316406 78.34664062 169.56132812 78.33203125 170.81640625 C78.18149447 179.81850553 78.18149447 179.81850553 77 181 C74.60717729 181.10027985 72.2432066 181.13618677 69.84985352 181.12939453 C69.10189514 181.13114685 68.35393677 181.13289917 67.58331299 181.13470459 C65.09848748 181.13912375 62.61373254 181.13618461 60.12890625 181.1328125 C58.40876756 181.13348559 56.68862896 181.13445566 54.9684906 181.13571167 C51.35780942 181.13718879 47.74715293 181.13503391 44.13647461 181.13037109 C39.50133323 181.12467807 34.86624981 181.12795002 30.23111057 181.13394356 C26.67701275 181.13755244 23.12292872 181.136409 19.56883049 181.13381577 C17.85954723 181.13314718 16.15026273 181.13397254 14.44098091 181.13629532 C12.05380041 181.13882672 9.66671445 181.13497414 7.27954102 181.12939453 C6.56829575 181.13141876 5.85705048 181.13344299 5.12425232 181.13552856 C0.22852721 181.11426361 0.22852721 181.11426361 -2 180 C-4.05547428 171.53005626 -3.09536682 162.11029273 -3.02172852 153.44287109 C-3.01156833 151.78624744 -3.00187659 150.12962086 -2.99261475 148.47299194 C-2.9663078 144.00261159 -2.93349412 139.53230044 -2.89946485 135.06197309 C-2.8649481 130.38017637 -2.83648113 125.69834283 -2.80735779 121.01651001 C-2.75137164 112.1628192 -2.68998673 103.30917447 -2.62663645 94.45553362 C-2.5547427 84.37087725 -2.48890665 74.28618412 -2.42356598 64.20148349 C-2.2890923 43.46760792 -2.14705502 22.73378991 -2 2 C-1.34 2 -0.68 2 0 2 C0 1.34 0 0.68 0 0 Z " fill="#FDFDFD" transform="translate(1064,93)"/>
<path d="M0 0 C10.00496705 -0.06941263 20.00987712 -0.12276667 30.01503563 -0.15543652 C34.66050069 -0.17111389 39.30580141 -0.19238972 43.95117188 -0.22631836 C48.43154141 -0.25883827 52.91175257 -0.27683739 57.39223099 -0.28463173 C59.10433065 -0.29018854 60.81642133 -0.30103921 62.52845383 -0.31719017 C64.92069195 -0.33886699 67.31226983 -0.34197109 69.70458984 -0.34057617 C70.41740616 -0.351362 71.13022247 -0.36214783 71.86463928 -0.3732605 C73.83627319 -0.36076355 73.83627319 -0.36076355 77 0 C79.24305946 3.36458918 79.25653373 4.53516271 79.265625 8.47265625 C79.26949219 10.06883789 79.26949219 10.06883789 79.2734375 11.69726562 C79.26570312 12.80779297 79.25796875 13.91832031 79.25 15.0625 C79.26160156 16.7340918 79.26160156 16.7340918 79.2734375 18.43945312 C79.27085937 19.50228516 79.26828125 20.56511719 79.265625 21.66015625 C79.26336914 22.63605713 79.26111328 23.61195801 79.25878906 24.61743164 C79 27 79 27 77 29 C75.01315308 29.2784729 75.01315308 29.2784729 72.55029297 29.31884766 C71.62948944 29.33871735 70.70868591 29.35858704 69.75997925 29.37905884 C68.76410797 29.39061005 67.76823669 29.40216125 66.7421875 29.4140625 C65.72399933 29.43342865 64.70581116 29.4527948 63.6567688 29.4727478 C60.39626511 29.53265355 57.13572633 29.57897299 53.875 29.625 C51.66795313 29.66316965 49.46092131 29.70222077 47.25390625 29.7421875 C41.83601467 29.84002753 36.4182886 29.9195094 31 30 C31 44.19 31 58.38 31 73 C39.1078239 73.85213987 39.1078239 73.85213987 47.0859375 73.9921875 C48.11847656 73.97542969 49.15101563 73.95867187 50.21484375 73.94140625 C52.3452184 73.89663942 54.47544739 73.84439505 56.60546875 73.78515625 C57.63027344 73.77097656 58.65507813 73.75679688 59.7109375 73.7421875 C60.63181152 73.7201123 61.55268555 73.69803711 62.50146484 73.67529297 C65.58813976 74.07643403 66.88692396 74.71103681 69 77 C69.48583984 79.60375977 69.48583984 79.60375977 69.4609375 82.69140625 C69.45707031 83.80064453 69.45320312 84.90988281 69.44921875 86.05273438 C69.41248047 87.79006836 69.41248047 87.79006836 69.375 89.5625 C69.37371094 90.72458984 69.37242187 91.88667969 69.37109375 93.08398438 C69.2806713 101.7193287 69.2806713 101.7193287 67 104 C64.20315203 104.17525055 61.5067192 104.23143189 58.7109375 104.1953125 C57.48330185 104.19106766 57.48330185 104.19106766 56.23086548 104.18673706 C53.61209607 104.17552532 50.99366636 104.15041929 48.375 104.125 C46.60156743 104.11497147 44.82812951 104.1058454 43.0546875 104.09765625 C38.70299374 104.07558278 34.3515545 104.04104644 30 104 C30.16298584 105.12341797 30.32597168 106.24683594 30.49389648 107.40429688 C31.08153612 112.12614427 31.12708078 116.77854254 31.09765625 121.53125 C31.0962413 122.40777222 31.09482635 123.28429443 31.09336853 124.18737793 C31.08781768 126.95828821 31.07527461 129.72911457 31.0625 132.5 C31.05747864 134.39062382 31.05291685 136.28124893 31.04882812 138.171875 C31.0378644 142.78128183 31.02063425 147.39062673 31 152 C31.83565239 151.99000725 31.83565239 151.99000725 32.68818665 151.97981262 C38.4791589 151.91351434 44.27002361 151.8682225 50.0612793 151.83520508 C52.22343321 151.82010556 54.38555643 151.79962429 56.54760742 151.77368164 C59.652909 151.73734983 62.75780614 151.72028538 65.86328125 151.70703125 C66.83211746 151.69154739 67.80095367 151.67606354 68.79914856 151.66011047 C70.15020943 151.65977058 70.15020943 151.65977058 71.52856445 151.65942383 C72.32132278 151.65276199 73.11408112 151.64610016 73.93086243 151.63923645 C76.53784728 152.09377612 77.41482389 152.91535554 79 155 C79.37231445 157.51196289 79.37231445 157.51196289 79.36328125 160.47265625 C79.36231445 162.06883789 79.36231445 162.06883789 79.36132812 163.69726562 C79.34521484 164.80779297 79.32910156 165.91832031 79.3125 167.0625 C79.31572266 168.17689453 79.31894531 169.29128906 79.32226562 170.43945312 C79.26694139 178.73305861 79.26694139 178.73305861 77 181 C74.53603932 181.19296343 72.18500225 181.26239213 69.72045898 181.24291992 C68.59589294 181.24576744 68.59589294 181.24576744 67.4486084 181.24867249 C64.96433132 181.25238479 62.48034495 181.24167062 59.99609375 181.23046875 C58.27498916 181.2292772 56.55388391 181.22882373 54.83277893 181.2290802 C51.22384579 181.2275146 47.61501174 181.21921849 44.00610352 181.20581055 C39.36976423 181.18880785 34.73353382 181.18499652 30.09716702 181.18575573 C26.54310559 181.18548441 22.98906818 181.18000958 19.43501472 181.17275429 C17.72490686 181.16956239 16.01479627 181.167599 14.30468559 181.16686058 C11.9197916 181.16470323 9.53501537 181.15597262 7.15014648 181.14526367 C6.43687698 181.14571686 5.72360748 181.14617004 4.98872375 181.14663696 C0.11447511 181.11447511 0.11447511 181.11447511 -1 180 C-1.09928706 177.72855101 -1.12632447 175.45394619 -1.12698364 173.18032837 C-1.12854363 172.45880187 -1.13010362 171.73727538 -1.13171089 170.99388444 C-1.1357235 168.55791436 -1.13253022 166.12200578 -1.12939453 163.68603516 C-1.13074848 161.94693464 -1.13252838 160.20783442 -1.13470459 158.46873474 C-1.13928035 153.73113321 -1.1374886 148.99355334 -1.1343255 144.2559514 C-1.13180183 139.30722016 -1.13413954 134.35849083 -1.13571167 129.40975952 C-1.13753369 121.09543524 -1.13512658 112.78111982 -1.13037109 104.46679688 C-1.12493199 94.84598187 -1.12668845 85.22518806 -1.1321975 75.60437357 C-1.13673198 67.35638994 -1.13737742 59.10841269 -1.13475883 50.86042821 C-1.13319745 45.92904969 -1.13299844 40.99768114 -1.13629532 36.06630325 C-1.13917876 31.42888711 -1.13718958 26.79149834 -1.13140106 22.15408516 C-1.13007586 20.44925927 -1.13046354 18.74443108 -1.13266373 17.03960609 C-1.13538469 14.71758565 -1.13198239 12.39565368 -1.12698364 10.07363892 C-1.12660662 8.77244425 -1.12622959 7.47124958 -1.12584114 6.13062477 C-1 3 -1 3 0 0 Z " fill="#FEFEFE" transform="translate(465,93)"/>
<path d="M0 0 C1.32 0 2.64 0 4 0 C4 0.66 4 1.32 4 2 C5.32 2.33 6.64 2.66 8 3 C8 3.66 8 4.32 8 5 C8.66 5 9.32 5 10 5 C10 4.01 10 3.02 10 2 C10.99 2 11.98 2 13 2 C13 1.34 13 0.68 13 0 C13.66 0 14.32 0 15 0 C15 0.66 15 1.32 15 2 C15.99 2 16.98 2 18 2 C18 14.87 18 27.74 18 41 C13 43 13 43 10 42 C10 41.34 10 40.68 10 40 C9.34 40 8.68 40 8 40 C7.67 37.69 7.34 35.38 7 33 C6.34 33 5.68 33 5 33 C5.020625 34.27875 5.04125 35.5575 5.0625 36.875 C5.125 40.75 5.125 40.75 4 43 C2.02 43 0.04 43 -2 43 C-2.495 41.515 -2.495 41.515 -3 40 C-3.66 40 -4.32 40 -5 40 C-5 30.76 -5 21.52 -5 12 C-4.34 12 -3.68 12 -3 12 C-3 8.7 -3 5.4 -3 2 C-2.01 2 -1.02 2 0 2 C0 1.34 0 0.68 0 0 Z " fill="#FCFCFC" transform="translate(864,300)"/>
<path d="M0 0 C2.97 0 5.94 0 9 0 C9 0.66 9 1.32 9 2 C10.3921875 1.87625 10.3921875 1.87625 11.8125 1.75 C15 2 15 2 16.67651367 3.51708984 C18.51327684 6.96292666 18.41076457 10.16818762 18.36328125 13.9765625 C18.36377975 14.74302094 18.36427826 15.50947937 18.36479187 16.29916382 C18.36245663 17.91463828 18.35276048 19.53011674 18.33618164 21.14550781 C18.31251551 23.62337568 18.31563352 26.10017228 18.32226562 28.578125 C18.31669101 30.14844394 18.3095825 31.71875833 18.30078125 33.2890625 C18.30214836 34.40312973 18.30214836 34.40312973 18.30354309 35.53970337 C18.23105837 40.76894163 18.23105837 40.76894163 16 43 C12.70285207 42.67028521 11.3773161 42.3773161 9 40 C8.5859375 37.6171875 8.5859375 37.6171875 8.375 34.875 C8.30023438 33.96492188 8.22546875 33.05484375 8.1484375 32.1171875 C8.09945313 31.41851562 8.05046875 30.71984375 8 30 C7.96261719 30.68707031 7.92523438 31.37414062 7.88671875 32.08203125 C7.82097656 32.98308594 7.75523437 33.88414062 7.6875 34.8125 C7.62949219 35.70582031 7.57148438 36.59914063 7.51171875 37.51953125 C6.9293972 40.34223494 6.3451273 41.35342126 4 43 C-1.43478261 42.56521739 -1.43478261 42.56521739 -3 41 C-3.08861992 38.1883662 -3.11522355 35.40141745 -3.09765625 32.58984375 C-3.0962413 31.74780899 -3.09482635 30.90577423 -3.09336853 30.03822327 C-3.08775263 27.33794665 -3.07519748 24.63775172 -3.0625 21.9375 C-3.05748705 20.11132932 -3.05292379 18.28515734 -3.04882812 16.45898438 C-3.03777804 11.97262458 -3.02050279 7.48632616 -3 3 C-2.01 2.67 -1.02 2.34 0 2 C0 1.34 0 0.68 0 0 Z M7 10 C7 12.31 7 14.62 7 17 C7.66 16.67 8.32 16.34 9 16 C9 14.35 9 12.7 9 11 C8.34 10.67 7.68 10.34 7 10 Z " fill="#FDFDFD" transform="translate(467,300)"/>
<path d="M0 0 C0 0.66 0 1.32 0 2 C0.99 2 1.98 2 3 2 C3 11.9 3 21.8 3 32 C3.66 32 4.32 32 5 32 C5 22.43 5 12.86 5 3 C5.99 2.67 6.98 2.34 8 2 C8 1.34 8 0.68 8 0 C12 0 12 0 13.73168945 1.0168457 C15.69190904 4.08188202 15.36776988 7.21248031 15.29296875 10.73046875 C15.28872391 11.48088943 15.28447906 12.23131012 15.28010559 13.00447083 C15.2633245 15.39918026 15.2256749 17.79304534 15.1875 20.1875 C15.17245235 21.8118368 15.15876409 23.4361868 15.14648438 25.06054688 C15.11342305 29.04068948 15.06164594 33.02020163 15 37 C14.34 37 13.68 37 13 37 C12.896875 37.61875 12.79375 38.2375 12.6875 38.875 C12 41 12 41 9 43 C7.0625 43.23046875 7.0625 43.23046875 5 43.1875 C4.319375 43.18105469 3.63875 43.17460937 2.9375 43.16796875 C1 43 1 43 -2 42 C-2 41.34 -2 40.68 -2 40 C-2.99 39.67 -3.98 39.34 -5 39 C-5 38.34 -5 37.68 -5 37 C-5.66 37 -6.32 37 -7 37 C-7.07415168 32.21284377 -7.12860204 27.42602173 -7.16479492 22.63842773 C-7.17988243 21.00978777 -7.20035506 19.38118844 -7.22631836 17.75268555 C-7.26270449 15.41184465 -7.2797262 13.07154081 -7.29296875 10.73046875 C-7.30845261 10.00224411 -7.32393646 9.27401947 -7.33988953 8.52372742 C-7.34086024 5.60859124 -7.32712714 3.51150217 -5.73168945 1.0168457 C-4 0 -4 0 0 0 Z " fill="#FDFDFD" transform="translate(696,300)"/>
<path d="M0 0 C2.31 0 4.62 0 7 0 C7 0.66 7 1.32 7 2 C7.78375 2.103125 8.5675 2.20625 9.375 2.3125 C12 3 12 3 14 6 C14.41050841 10.39002519 14.37160295 14.78943893 14.37060547 19.19628906 C14.37497142 21.36083078 14.41127661 23.52332001 14.44921875 25.6875 C14.45508888 27.07030556 14.45905696 28.45312076 14.4609375 29.8359375 C14.46915527 31.08938965 14.47737305 32.3428418 14.48583984 33.63427734 C13.91695601 37.57529873 12.77400831 39.20143722 10 42 C6.78918322 43.60540839 3.48289645 43.48463309 0 43 C-5.5 40 -5.5 40 -7 37 C-7.25812405 32.61153515 -7.2710009 28.21931056 -7.29516602 23.82421875 C-7.31238187 21.6399869 -7.35627034 19.45726825 -7.40039062 17.2734375 C-7.41051777 15.88282362 -7.41903381 14.49219689 -7.42578125 13.1015625 C-7.44036377 11.83650879 -7.45494629 10.57145508 -7.4699707 9.26806641 C-7 6 -7 6 -5.16088867 3.55615234 C-3 2 -3 2 0 2 C0 1.34 0 0.68 0 0 Z M3 11 C3 17.93 3 24.86 3 32 C3.33 32 3.66 32 4 32 C6.06309123 21.0721549 6.06309123 21.0721549 3 11 Z " fill="#FDFDFD" transform="translate(821,300)"/>
<path d="M0 0 C1.65 0 3.3 0 5 0 C5 0.66 5 1.32 5 2 C5.7425 1.896875 6.485 1.79375 7.25 1.6875 C10 2 10 2 12.14526367 4.09912109 C14.39179049 7.61277538 14.47741404 9.5850992 14.42578125 13.7265625 C14.41740234 15.0053125 14.40902344 16.2840625 14.40039062 17.6015625 C14.3711001 18.94270847 14.34180316 20.2838543 14.3125 21.625 C14.30099963 22.97394466 14.29121713 24.32290512 14.28320312 25.671875 C14.16912366 35.49262902 14.16912366 35.49262902 13 39 C9.66572748 41.77856044 7.67349359 42.94292427 3.3125 43.3125 C0 43 0 43 -3 42 C-3 41.34 -3 40.68 -3 40 C-3.99 40 -4.98 40 -6 40 C-6.53682668 38.77773359 -7.05375532 37.54671915 -7.5625 36.3125 C-7.85253906 35.62800781 -8.14257812 34.94351563 -8.44140625 34.23828125 C-9.12807174 31.48681742 -8.57223067 29.76658232 -8 27 C-7.87178533 25.34345323 -7.77902353 23.68384507 -7.71875 22.0234375 C-7.68136719 21.105625 -7.64398437 20.1878125 -7.60546875 19.2421875 C-7.53486926 17.3229272 -7.46455908 15.40365624 -7.39453125 13.484375 C-7.35714844 12.56914062 -7.31976562 11.65390625 -7.28125 10.7109375 C-7.25095703 9.87868652 -7.22066406 9.04643555 -7.18945312 8.18896484 C-7 6 -7 6 -6 3 C-4.02 2.67 -2.04 2.34 0 2 C0 1.34 0 0.68 0 0 Z M1 11 C1 16.94 1 22.88 1 29 C1.66 29 2.32 29 3 29 C3.33 29.99 3.66 30.98 4 32 C4 24.74 4 17.48 4 10 C2.7763932 9.9254644 2.7763932 9.9254644 1 11 Z " fill="#FDFDFD" transform="translate(608,300)"/>
<path d="M0 0 C3.12806884 -0.3475632 4.59599079 -0.26933948 7.25 1.5 C9.70568734 5.00812477 9.71678837 7.75182555 10 12 C11.32 8.7 12.64 5.4 14 2 C14.66 2 15.32 2 16 2 C16 1.34 16 0.68 16 0 C16.66 0 17.32 0 18 0 C18 0.66 18 1.32 18 2 C18.99 2 19.98 2 21 2 C21.25183338 8.60363084 20.88226704 15.01618013 20.0625 21.5625 C19.97564941 22.26503906 19.88879883 22.96757812 19.79931641 23.69140625 C19.13339442 28.73321116 19.13339442 28.73321116 18 31 C17.76764056 33.26765601 17.61898297 35.53361414 17.4765625 37.80859375 C16.89924398 40.46331254 16.17108743 41.39572327 14 43 C10.41209285 43.39140805 7.99895755 43.56649292 4.81640625 41.76171875 C2.55133866 39.56484675 2.48476793 38.54592816 2.375 35.4375 C2.15258011 31.80464172 1.75181901 28.37546834 1 24.8125 C-2.93955592 5.87911184 -2.93955592 5.87911184 0 0 Z " fill="#FDFDFD" transform="translate(555,300)"/>
<path d="M0 0 C0.69738281 0.01804687 1.39476562 0.03609375 2.11328125 0.0546875 C3.82611539 0.10161446 5.53823824 0.17335395 7.25 0.25 C8.74106457 3.23212913 8.36941467 5.96609658 8.25 9.25 C7.25 10.25 7.25 10.25 5.18359375 10.34765625 C4.35988281 10.33605469 3.53617188 10.32445312 2.6875 10.3125 C1.86121094 10.30347656 1.03492188 10.29445313 0.18359375 10.28515625 C-0.45449219 10.27355469 -1.09257813 10.26195312 -1.75 10.25 C-1.75 11.9 -1.75 13.55 -1.75 15.25 C-0.079375 15.683125 -0.079375 15.683125 1.625 16.125 C5.25 17.25 5.25 17.25 7.25 19.25 C7.5 21.75 7.5 21.75 7.25 24.25 C4.48776722 27.01223278 2.04293383 26.82856291 -1.75 27.25 C-1.75 28.24 -1.75 29.23 -1.75 30.25 C-1.09 30.25 -0.43 30.25 0.25 30.25 C0.25 31.24 0.25 32.23 0.25 33.25 C1.9515625 33.2190625 1.9515625 33.2190625 3.6875 33.1875 C7.25 33.25 7.25 33.25 8.25 34.25 C8.3828125 36.0625 8.3828125 36.0625 8.375 38.25 C8.37886719 39.3328125 8.37886719 39.3328125 8.3828125 40.4375 C8.25 42.25 8.25 42.25 7.25 43.25 C4.79507499 43.43063984 2.39495751 43.52801743 -0.0625 43.5625 C-0.73990234 43.59150391 -1.41730469 43.62050781 -2.11523438 43.65039062 C-5.28169405 43.69062912 -7.31857513 43.55133013 -9.9440918 41.7175293 C-12.40816751 38.35070311 -12.32566494 35.36120278 -12.28125 31.34375 C-12.2850769 30.58203491 -12.28890381 29.82031982 -12.29284668 29.03552246 C-12.29556313 27.42845332 -12.28822044 25.82133976 -12.27148438 24.21435547 C-12.25006786 21.75778413 -12.27129178 19.30413689 -12.296875 16.84765625 C-12.29423167 15.28384773 -12.28910658 13.72004102 -12.28125 12.15625 C-12.28934692 11.42386108 -12.29744385 10.69147217 -12.30578613 9.93688965 C-12.2431009 6.51884236 -11.98516308 4.57199644 -9.94628906 1.78027344 C-6.75537772 -0.44300717 -3.73199167 -0.18342492 0 0 Z " fill="#FCFCFC" transform="translate(997.75,299.75)"/>
<path d="M0 0 C3.96 0 7.92 0 12 0 C12 0.66 12 1.32 12 2 C12.99 2 13.98 2 15 2 C15.04241723 4.33294775 15.04092937 6.66702567 15 9 C14 10 14 10 11.93359375 10.09765625 C11.10988281 10.08605469 10.28617188 10.07445312 9.4375 10.0625 C8.61121094 10.05347656 7.78492188 10.04445313 6.93359375 10.03515625 C6.29550781 10.02355469 5.65742187 10.01195312 5 10 C6.21620585 13.01647106 6.21620585 13.01647106 8 16 C10.07690578 16.96044102 10.07690578 16.96044102 12 17 C12 17.66 12 18.32 12 19 C12.66 19 13.32 19 14 19 C14 20.65 14 22.3 14 24 C13.34 24 12.68 24 12 24 C12 24.66 12 25.32 12 26 C10.35 26.33 8.7 26.66 7 27 C7 28.98 7 30.96 7 33 C8.7015625 32.9690625 8.7015625 32.9690625 10.4375 32.9375 C14 33 14 33 15 34 C15.1328125 35.8125 15.1328125 35.8125 15.125 38 C15.12886719 39.0828125 15.12886719 39.0828125 15.1328125 40.1875 C15 42 15 42 14 43 C11.35877716 43.18021767 8.76853102 43.27801916 6.125 43.3125 C5.39152344 43.34150391 4.65804687 43.37050781 3.90234375 43.40039062 C-1.48102952 43.4641282 -1.48102952 43.4641282 -3.99609375 41.21484375 C-5.4098046 38.09587858 -5.19475522 35.37575707 -5 32 C-4.34 32 -3.68 32 -3 32 C-3 22.1 -3 12.2 -3 2 C-2.01 2 -1.02 2 0 2 C0 1.34 0 0.68 0 0 Z " fill="#FDFDFD" transform="translate(514,300)"/>
<path d="M0 0 C4.95 0 9.9 0 15 0 C15 0.66 15 1.32 15 2 C15.99 2 16.98 2 18 2 C18.02712066 3.43739513 18.04645067 4.87493863 18.0625 6.3125 C18.07410156 7.11300781 18.08570313 7.91351563 18.09765625 8.73828125 C18 11 18 11 17 14 C16.34 14 15.68 14 15 14 C14.896875 14.99 14.79375 15.98 14.6875 17 C14.1836628 20.59988029 13.08600946 23.74884677 11.71875 27.10546875 C10.98149584 29.04877456 10.466653 30.97634131 10 33 C12.31 33 14.62 33 17 33 C18.38125018 35.76250036 18.19079306 37.94731099 18 41 C15.45799705 43.54200295 13.75775617 43.28716913 10.28320312 43.32226562 C9.55037109 43.31904297 8.81753906 43.31582031 8.0625 43.3125 C7.33353516 43.32861328 6.60457031 43.34472656 5.85351562 43.36132812 C2.87931279 43.36405425 0.57413068 43.33915828 -2.0234375 41.8046875 C-3.38900237 39.28112362 -3.08965538 37.62758769 -2.6875 34.8125 C-2.56761719 33.91144531 -2.44773437 33.01039063 -2.32421875 32.08203125 C-2.21722656 31.39496094 -2.11023438 30.70789063 -2 30 C-1.34 30 -0.68 30 0 30 C0.10957031 29.443125 0.21914063 28.88625 0.33203125 28.3125 C1.44275248 22.96658969 2.97225526 18.06936184 5 13 C5.66 13 6.32 13 7 13 C7 12.01 7 11.02 7 10 C5.88625 10.020625 4.7725 10.04125 3.625 10.0625 C0 10 0 10 -2 9 C-2 6.69 -2 4.38 -2 2 C-1.34 2 -0.68 2 0 2 C0 1.34 0 0.68 0 0 Z " fill="#FCFCFC" transform="translate(944,300)"/>
<path d="M0 0 C5.28 0 10.56 0 16 0 C16 0.66 16 1.32 16 2 C16.99 2.33 17.98 2.66 19 3 C18.67 4.98 18.34 6.96 18 9 C16.02 9.66 14.04 10.32 12 11 C12 16.94 12 22.88 12 29 C12.66 29 13.32 29 14 29 C14 32.63 14 36.26 14 40 C13.34 40 12.68 40 12 40 C11.67 40.99 11.34 41.98 11 43 C8.1875 43.25 8.1875 43.25 5 43 C2.54539674 40.6712464 2.02919221 39.2671035 1.65942383 35.88378906 C1.67513428 34.68979492 1.69084473 33.49580078 1.70703125 32.265625 C1.71669922 30.97011719 1.72636719 29.67460937 1.73632812 28.33984375 C1.76139217 26.97655646 1.78678698 25.61327521 1.8125 24.25 C1.82755482 22.87110816 1.84124183 21.49220065 1.85351562 20.11328125 C1.88888091 16.74179085 1.93824096 13.37109346 2 10 C0.68 9.67 -0.64 9.34 -2 9 C-2.33 7.02 -2.66 5.04 -3 3 C-2.01 2.67 -1.02 2.34 0 2 C0 1.34 0 0.68 0 0 Z " fill="#FDFDFD" transform="translate(737,300)"/>
<path d="M0 0 C2.31 0 4.62 0 7 0 C8.13917218 3.41751653 8.11338481 6.03487937 8.09765625 9.63671875 C8.09443359 10.93544922 8.09121094 12.23417969 8.08789062 13.57226562 C8.07953531 14.94401108 8.07107037 16.31575587 8.0625 17.6875 C8.05748335 19.07096195 8.05292073 20.45442563 8.04882812 21.83789062 C8.03702529 25.22530395 8.02056019 28.61263033 8 32 C8.63808594 32.04898438 9.27617188 32.09796875 9.93359375 32.1484375 C10.75988281 32.22320312 11.58617187 32.29796875 12.4375 32.375 C13.26121094 32.44460938 14.08492187 32.51421875 14.93359375 32.5859375 C15.95646484 32.79089844 15.95646484 32.79089844 17 33 C18.39431504 35.78863007 18.25660094 37.92078868 18 41 C14.33236683 43.44508878 12.36568225 43.29885724 8 43.3125 C6.14375 43.33763672 6.14375 43.33763672 4.25 43.36328125 C1 43 1 43 -0.68041992 41.97900391 C-2.75529841 38.86726199 -2.40711043 35.58675419 -2.36328125 31.97265625 C-2.36377975 31.18733017 -2.36427826 30.40200409 -2.36479187 29.59288025 C-2.36245256 27.93274403 -2.35273238 26.27260419 -2.33618164 24.61254883 C-2.31261942 22.07535963 -2.31561775 19.53922372 -2.32226562 17.00195312 C-2.31668758 15.38801458 -2.3095769 13.77408046 -2.30078125 12.16015625 C-2.30169266 11.4027565 -2.30260406 10.64535675 -2.30354309 9.86500549 C-2.25304532 6.09960058 -2.10445228 3.19568854 0 0 Z " fill="#FCFCFC" transform="translate(648,300)"/>
<path d="M0 0 C1.65 0 3.3 0 5 0 C5 0.66 5 1.32 5 2 C5.99 2.33 6.98 2.66 8 3 C8.02467759 8.37515933 8.04284928 13.75028585 8.05493164 19.12548828 C8.05996737 20.95492121 8.06679627 22.78435009 8.07543945 24.61376953 C8.08753824 27.23991898 8.09323583 29.86601532 8.09765625 32.4921875 C8.10281754 33.31306854 8.10797882 34.13394958 8.11329651 34.97970581 C8.11387171 40.77225659 8.11387171 40.77225659 7 43 C1.375 43.25 1.375 43.25 -2 41 C-2.26653946 38.0204901 -2.34767784 35.2511418 -2.29296875 32.2734375 C-2.28872391 31.41062164 -2.28447906 30.54780579 -2.28010559 29.65884399 C-2.26328392 26.89724803 -2.22562598 24.13637617 -2.1875 21.375 C-2.17245764 19.50521886 -2.15876846 17.6354263 -2.14648438 15.765625 C-2.11336906 11.17680342 -2.06156339 6.58852456 -2 2 C-1.34 2 -0.68 2 0 2 C0 1.34 0 0.68 0 0 Z " fill="#FCFCFC" transform="translate(781,300)"/>
<path d="M0 0 C3.0497029 0.37191499 3.69155824 0.94858586 5.5625 3.3125 C5.82417679 6.25434741 5.91123921 8.9798721 5.85546875 11.91796875 C5.85122391 12.75717361 5.84697906 13.59637848 5.84260559 14.46101379 C5.82581464 17.14100245 5.7881623 19.8202387 5.75 22.5 C5.73495367 24.31704643 5.72126518 26.13410465 5.70898438 27.95117188 C5.67590982 32.40523776 5.62412513 36.85874132 5.5625 41.3125 C4.9025 41.3125 4.2425 41.3125 3.5625 41.3125 C3.5625 41.9725 3.5625 42.6325 3.5625 43.3125 C-3.3125 42.4375 -3.3125 42.4375 -4.4375 41.3125 C-4.55099161 38.45155783 -4.60168492 35.61566544 -4.60546875 32.75390625 C-4.60879715 31.89441879 -4.61212555 31.03493134 -4.61555481 30.1493988 C-4.6206277 28.32771339 -4.62296302 26.50601864 -4.62280273 24.68432617 C-4.62498803 21.8903071 -4.64313644 19.09668343 -4.66210938 16.30273438 C-4.6650434 14.53645969 -4.66702814 12.77018312 -4.66796875 11.00390625 C-4.67515427 10.16428848 -4.68233978 9.32467072 -4.68974304 8.45960999 C-4.65862832 0.59726004 -4.65862832 0.59726004 0 0 Z " fill="#FCFCFC" transform="translate(912.4375,299.6875)"/>
<path d="M0 0 C2.29160319 -0.02692484 4.58329546 -0.04636124 6.875 -0.0625 C8.15117188 -0.07410156 9.42734375 -0.08570313 10.7421875 -0.09765625 C14 0 14 0 16 1 C16 1.99 16 2.98 16 4 C10.39 4 4.78 4 -1 4 C-0.67 2.68 -0.34 1.36 0 0 Z " fill="#F1F1F1" transform="translate(960,270)"/>
<path d="M0 0 C0.33 0.99 0.66 1.98 1 3 C-1.97870377 3.99290126 -3.59182885 4.05524548 -6.66796875 3.87890625 C-8.00698242 3.80639648 -8.00698242 3.80639648 -9.37304688 3.73242188 C-10.30181641 3.67634766 -11.23058594 3.62027344 -12.1875 3.5625 C-13.12787109 3.51029297 -14.06824219 3.45808594 -15.03710938 3.40429688 C-17.35841501 3.27468082 -19.67928409 3.13971819 -22 3 C-22.33 2.34 -22.66 1.68 -23 1 C-7.25512528 -0.14806378 -7.25512528 -0.14806378 0 0 Z " fill="#F8F8F8" transform="translate(342,135)"/>
<path d="M0 0 C-0.33 1.32 -0.66 2.64 -1 4 C-6.94 4 -12.88 4 -19 4 C-19.33 3.01 -19.66 2.02 -20 1 C-17.04170322 0.832662 -14.08336635 0.66609948 -11.125 0.5 C-9.86236328 0.42845703 -9.86236328 0.42845703 -8.57421875 0.35546875 C-7.76855469 0.31035156 -6.96289062 0.26523437 -6.1328125 0.21875 C-5.38918457 0.17685547 -4.64555664 0.13496094 -3.87939453 0.09179688 C-2.58744125 0.0286929 -1.29349349 0 0 0 Z " fill="#ECECEC" transform="translate(684,270)"/>
<path d="M0 0 C3.96 0 7.92 0 12 0 C12.33 0.99 12.66 1.98 13 3 C10.51245214 4.24377393 8.77344699 4.13306235 6 4.125 C5.113125 4.12757813 4.22625 4.13015625 3.3125 4.1328125 C1 4 1 4 -1 3 C-0.67 2.01 -0.34 1.02 0 0 Z " fill="#EDEDED" transform="translate(946,339)"/>
<path d="M0 0 C1.91015625 0.23046875 1.91015625 0.23046875 3.91015625 2.23046875 C3.58015625 2.89046875 3.25015625 3.55046875 2.91015625 4.23046875 C-0.05984375 4.23046875 -3.02984375 4.23046875 -6.08984375 4.23046875 C-6.41984375 3.24046875 -6.74984375 2.25046875 -7.08984375 1.23046875 C-5.19495423 -0.66442077 -2.51845229 0.05027763 0 0 Z " fill="#EEEEEE" transform="translate(658.08984375,338.76953125)"/>
<path d="M0 0 C0.66 0.33 1.32 0.66 2 1 C2 3.31 2 5.62 2 8 C0.68 7.67 -0.64 7.34 -2 7 C-2 5.02 -2 3.04 -2 1 C-1.34 0.67 -0.68 0.34 0 0 Z " fill="#EAEAEA" transform="translate(748,331)"/>
<path d="M0 0 C2.97 0 5.94 0 9 0 C9.33 0.99 9.66 1.98 10 3 C6.7 3 3.4 3 0 3 C0 2.01 0 1.02 0 0 Z " fill="#E7E7E7" transform="translate(1037,271)"/>
<path d="M0 0 C0.33 0.66 0.66 1.32 1 2 C0.67 2.66 0.34 3.32 0 4 C-2.97 4 -5.94 4 -9 4 C-8.67 3.01 -8.34 2.02 -8 1 C-5.07175348 0.02391783 -3.04386724 -0.08226668 0 0 Z " fill="#E8E8E8" transform="translate(1002,339)"/>
<path d="M0 0 C2.72869407 0.03287583 5.2966618 0.56397771 8 1 C8 1.99 8 2.98 8 4 C1.375 4.25 1.375 4.25 -2 2 C-1.34 1.34 -0.68 0.68 0 0 Z " fill="#EFEFEF" transform="translate(516,338)"/>
<path d="M0 0 C0.66 0 1.32 0 2 0 C2 0.99 2 1.98 2 3 C3.32 3 4.64 3 6 3 C5.67 3.66 5.34 4.32 5 5 C2.5625 5.75 2.5625 5.75 0 6 C-0.66 5.34 -1.32 4.68 -2 4 C-1.34 2.68 -0.68 1.36 0 0 Z " fill="#ECECEC" transform="translate(518,330)"/>
<path d="M0 0 C2.31 0 4.62 0 7 0 C7 0.66 7 1.32 7 2 C7.66 2.33 8.32 2.66 9 3 C6.03 3 3.06 3 0 3 C0 2.01 0 1.02 0 0 Z " fill="#E6E6E6" transform="translate(948,340)"/>
<path d="M0 0 C1.65 0 3.3 0 5 0 C5.33 0.99 5.66 1.98 6 3 C3.36 3.33 0.72 3.66 -2 4 C-1.34 2.68 -0.68 1.36 0 0 Z " fill="#F3F3F3" transform="translate(992,339)"/>
</svg>
